<?xml version="1.0" standalone="no"?>
<!DOCTYPE svg PUBLIC "-//W3C//DTD SVG 1.1//EN" "http://www.w3.org/Graphics/SVG/1.1/DTD/svg11.dtd" >
<svg xmlns="http://www.w3.org/2000/svg">
<metadata>Generated by IcoMoon</metadata>
<defs>
<font id="chronos-icons" horiz-adv-x="1024">
<font-face units-per-em="1024" ascent="960" descent="-64" />
<missing-glyph horiz-adv-x="1024" />
<glyph unicode="&#x20;" horiz-adv-x="512" d="" />
<glyph unicode="&#xe900;" glyph-name="adjustments-bold" d="M512 641.311c-52.204 0-100.352-19.415-135.639-54.682s-54.682-83.415-54.682-135.639 19.415-100.352 54.682-135.639 83.415-54.682 135.639-54.682 100.352 19.415 135.639 54.682 54.682 83.436 54.682 135.639-19.415 100.352-54.682 135.639-83.436 54.682-135.639 54.682zM604.16 358.81c-23.654-23.654-56.402-36.68-92.16-36.68s-68.526 13.025-92.16 36.68-36.68 56.402-36.68 92.16 13.025 68.526 36.68 92.16 56.381 36.68 92.16 36.68 68.547-13.025 92.16-36.68 36.68-56.402 36.68-92.16-13.005-68.506-36.68-92.14zM1003.52 352.788v190.669l-110.367 18.432c-6.308 21.852-17.101 43.909-32.604 74.957l67.584 92.283-138.056 138.097-91.914-67.4c-21.522 12.817-46.378 23.799-72.582 31.664l-14.663 111.061h-191.365l-18.432-110.039c-26.624-6.144-49.275-17.265-75.407-32.666l-91.791 67.379-137.871-137.871 61.276-91.914c-11.51-20.255-18.063-37.888-24.76-56.607-2.191-6.001-4.424-12.145-6.902-18.575l-105.185-12.288v-191.345l110.039-18.432c6.267-26.747 17.326-49.418 32.768-75.674l-61.215-91.853 137.544-137.605 92.303 61.44c22.2-10.752 48.845-21.524 75.059-32.010l18.432-111.124h197.181l18.432 110.039c26.624 6.144 49.275 17.265 75.407 32.645l91.873-67.379 138.138 138.117-67.4 91.914c12.887 21.726 23.89 46.822 31.716 73.282zM853.258 355.144c-5.468-21.811-16.22-46.756-30.29-70.226-4.659-7.615-7.417-16.831-7.417-26.691 0-11.535 3.775-22.189 10.158-30.792l39.858-54.338-63.488-63.488-54.559 39.854c-8.468 6.276-19.122 10.047-30.656 10.047-9.858 0-19.072-2.754-26.916-7.534-26.047-15.62-44.623-25.041-67.622-29.628-21.053-4.415-37.24-21.064-40.915-42.019l-10.9-65.419h-92.897l-10.854 65.106c-3.157 18.108-15.292 32.801-31.561 39.502-29.019 11.575-58.551 23.412-80.772 34.512-6.749 3.433-14.717 5.445-23.154 5.445-10.726 0-20.692-3.25-28.969-8.819l-54.783-36.48-66.376 66.335 36.659 54.989c5.438 8.096 8.679 18.063 8.679 28.788 0 9.845-2.732 19.053-7.479 26.905-15.618 26.022-25.039 44.618-29.627 67.597-4.409 21.056-21.061 37.246-42.020 40.915l-65.439 10.9v84.664l56.607 6.656c19.197 2.312 34.996 14.829 41.961 31.889 3.832 9.583 7.006 18.307 9.812 26.008 6.881 18.903 12.288 33.833 22.774 51.2 4.622 7.623 7.358 16.836 7.358 26.688 0 10.717-3.237 20.679-8.787 28.959l-36.541 54.862 64.983 64.983 54.497-39.956c8.465-6.281 19.119-10.055 30.654-10.055 9.86 0 19.075 2.757 26.918 7.542 26.028 15.62 44.623 25.020 67.684 29.587 21.056 4.409 37.246 21.061 40.915 42.020l10.9 65.418h84.357l6.861-62.382c2.54-21.697 18.095-39.163 38.55-44.505 22.153-5.528 47.098-16.28 70.588-30.391 7.615-4.656 16.831-7.413 26.69-7.413 11.535 0 22.189 3.774 30.793 10.154l54.337 39.858 63.488-63.488-39.956-54.477c-6.292-8.461-10.073-19.115-10.073-30.652 0-8.464 2.035-16.452 5.642-23.502 16.474-32.906 27.431-54.84 32.079-73.436 5.091-19.975 21.299-35.111 41.493-38.561l65.576-10.857v-88.248l-48.681-9.728c-19.704-4.099-35.123-18.895-40.061-37.915z" />
<glyph unicode="&#xe901;" glyph-name="appointments-bold" d="M208.568 601.6h119.46v-89.6h-119.46v89.6zM208.568 458.772h119.46v-89.6h-119.46v89.6zM208.568 315.924h119.46v-89.6h-119.46v89.6zM401.531 601.6h119.46v-89.6h-119.46v89.6zM595.497 601.6h119.46v-89.6h-119.46v89.6zM853.279 420.905v411.955h-167.322v75.94c0 16.966-13.754 30.72-30.72 30.72s-30.72-13.754-30.72-30.72v-75.94h-325.509v75.94c0 16.966-13.754 30.72-30.72 30.72s-30.72-13.754-30.72-30.72v-75.94h-168.325v-759.050h409.805c46.925-71.084 126.449-117.34 216.776-117.34 142.991 0 258.908 115.917 258.908 258.908 0 83.482-39.511 157.735-100.852 205.081zM130.683 135.25v636.17h106.885v-54.62c0-16.966 13.754-30.72 30.72-30.72s30.72 13.754 30.72 30.72v54.62h325.509v-54.62c0-16.966 13.754-30.72 30.72-30.72s30.72 13.754 30.72 30.72v54.62h105.882v-315.392c-28.42 11.687-61.41 18.472-95.986 18.472-67.516 0-128.989-25.871-175.046-68.241l0.184 52.514h-119.46v-89.6h86.016c-11.517-15.396-21.697-32.915-29.747-51.568l-56.269-1.68v-89.6h35.492c-0.143-3.604-0.246-7.229-0.246-10.854 0-0.043 0-0.094 0-0.145 0-28.627 4.661-56.165 13.267-81.896l-319.361 1.821zM695.767 17.92c-109.104 0-197.55 88.446-197.55 197.55s88.446 197.55 197.55 197.55c109.104 0 197.55-88.446 197.55-197.55-0.128-109.052-88.498-197.422-197.538-197.55zM796.836 197.366l-70.349 33.28v128.819c0 16.966-13.754 30.72-30.72 30.72s-30.72-13.754-30.72-30.72v-148.275c0.001-12.196 7.109-22.731 17.408-27.691l88.125-41.675c3.747-1.754 8.137-2.778 12.765-2.778 16.966 0 30.72 13.754 30.72 30.72 0 12.056-6.945 22.489-17.051 27.519z" />
<glyph unicode="&#xe902;" glyph-name="burger-left-bold" d="M51.2 720.384h921.6c16.966 0 30.72 13.754 30.72 30.72s-13.754 30.72-30.72 30.72h-921.6c-16.966 0-30.72-13.754-30.72-30.72s13.754-30.72 30.72-30.72zM972.8 474.624h-921.6c-16.966 0-30.72-13.754-30.72-30.72s13.754-30.72 30.72-30.72h921.6c16.966 0 30.72 13.754 30.72 30.72s-13.754 30.72-30.72 30.72zM665.6 167.424h-614.4c-16.966 0-30.72-13.754-30.72-30.72s13.754-30.72 30.72-30.72h614.4c16.966 0 30.72 13.754 30.72 30.72s-13.754 30.72-30.72 30.72z" />
<glyph unicode="&#xe903;" glyph-name="clipboard-bold" d="M883.548 887.644h-68.096c-16.966 0-30.72-13.754-30.72-30.72s13.754-30.72 30.72-30.72h54.743v-808.284h-682.148v808.284h60.559c16.966 0 30.72 13.754 30.72 30.72s-13.754 30.72-30.72 30.72h-73.912c-26.551-0.035-48.064-21.555-48.087-48.105v-834.972c0.035-26.544 21.543-48.052 48.084-48.087h708.857c26.544 0.035 48.052 21.543 48.087 48.084v834.973c-0.023 26.552-21.536 48.073-48.084 48.108zM355 774.369h357.704c26.544 0.035 48.052 21.543 48.087 48.084v68.98c-0.035 26.544-21.543 48.052-48.084 48.087h-357.707c-26.544-0.035-48.052-21.543-48.087-48.084v-68.98c0.035-26.544 21.543-48.052 48.084-48.087zM368.353 878.080h331.1v-42.271h-331.1v42.271zM265.421 621.814c0-16.966 13.754-30.72 30.72-30.72h475.525c16.966 0 30.72 13.754 30.72 30.72s-13.754 30.72-30.72 30.72h-475.525c-16.966 0-30.72-13.754-30.72-30.72zM771.666 536.064h-475.525c-16.966 0-30.72-13.754-30.72-30.72s13.754-30.72 30.72-30.72h475.525c16.966 0 30.72 13.754 30.72 30.72s-13.754 30.72-30.72 30.72zM771.666 419.697h-475.525c-16.966 0-30.72-13.754-30.72-30.72s13.754-30.72 30.72-30.72h475.525c16.966 0 30.72 13.754 30.72 30.72s-13.754 30.72-30.72 30.72zM802.386 272.548c0 16.966-13.754 30.72-30.72 30.72h-475.525c-16.966 0-30.72-13.754-30.72-30.72s13.754-30.72 30.72-30.72h475.525c16.966 0 30.72 13.754 30.72 30.72zM296.141 186.86c-16.966 0-30.72-13.754-30.72-30.72s13.754-30.72 30.72-30.72h354.304c16.966 0 30.72 13.754 30.72 30.72s-13.754 30.72-30.72 30.72h-354.304z" />
<glyph unicode="&#xe904;" glyph-name="hide-all-bold" d="M512 928.739c131.277 0 254.771-51.2 347.546-143.974 92.774-92.979 143.974-216.269 143.974-347.546s-51.2-254.771-143.974-347.546c-92.774-92.774-216.269-143.974-347.546-143.974s-254.771 51.2-347.546 143.974-143.974 216.269-143.974 347.546 51.2 254.566 143.974 347.546 216.269 143.974 347.546 143.974zM512 7.139c237.158 0 430.080 192.922 430.080 430.080s-192.922 430.080-430.080 430.080-430.080-192.922-430.080-430.080 192.922-430.080 430.080-430.080zM514.048 612.937c7.578 0 14.95-2.662 20.89-8.192l243.712-225.28c12.493-11.469 13.312-30.925 1.638-43.418s-30.925-13.312-43.418-1.638l-222.822 206.029-223.027-206.029c-12.493-11.469-31.949-10.65-43.418 1.638s-10.65 31.949 1.638 43.418l243.712 225.28c6.144 5.53 13.517 8.192 21.094 8.192z" />
<glyph unicode="&#xe905;" glyph-name="contract-bold" d="M994.529 930.529c-5.559 5.557-13.238 8.994-21.719 8.994s-16.16-3.437-21.719-8.994l-366.592-366.694v296.632c0 16.966-13.754 30.72-30.72 30.72s-30.72-13.754-30.72-30.72v-370.811c0-16.966 13.754-30.72 30.72-30.72h370.688c16.966 0 30.72 13.754 30.72 30.72s-13.754 30.72-30.72 30.72h-296.632l366.592 366.694c5.594 5.565 9.056 13.268 9.056 21.78 0 8.461-3.421 16.123-8.955 21.679zM470.118 436.838h-370.811c-16.966 0-30.72-13.754-30.72-30.72s13.754-30.72 30.72-30.72h296.653l-366.49-366.469c-5.786-5.594-9.378-13.426-9.378-22.097 0-16.966 13.754-30.72 30.72-30.72 8.671 0 16.503 3.592 22.088 9.37l366.498 366.478v-296.653c0-16.966 13.754-30.72 30.72-30.72s30.72 13.754 30.72 30.72v370.811c0 16.966-13.754 30.72-30.72 30.72z" />
<glyph unicode="&#xe906;" glyph-name="convert-task-bold" d="M512 15.319h-430.080v860.16h430.080c16.966 0 30.72 13.754 30.72 30.72s-13.754 30.72-30.72 30.72h-441.999c-27.335-0.035-49.486-22.185-49.521-49.517v-883.982c0.035-27.335 22.185-49.486 49.517-49.521h442.003c16.622 0.443 29.927 14.022 29.927 30.71s-13.305 30.267-29.886 30.709zM997.048 429.138q0.799 1.024 1.495 2.048c0.205 0.307 0.389 0.635 0.573 0.963s0.532 0.901 0.778 1.372l0.553 1.106c0.225 0.451 0.43 0.922 0.614 1.393s0.307 0.717 0.451 1.085l0.102 0.266c0.205 0.553 0.369 1.106 0.532 1.659 0 0.205 0.143 0.41 0.205 0.614 0.246 0.86 0.43 1.741 0.594 2.601 0 0.246 0 0.492 0.123 0.737 0.102 0.655 0.205 1.331 0.266 2.048 0 0.287 0 0.573 0 0.86 0 0.655 0 1.29 0 2.048 0 0.266 0 0.532 0 0.799 0 0.819 0 1.659-0.143 2.478v0.451q-0.143 1.188-0.369 2.355c0 0.348-0.164 0.717-0.246 1.065s-0.246 1.024-0.389 1.536-0.225 0.758-0.348 1.147-0.369 1.024-0.573 1.536-0.246 0.655-0.389 0.963c-0.348 0.778-0.717 1.556-1.126 2.314l-0.451 0.778c-0.328 0.573-0.676 1.126-1.024 1.679l-0.512 0.737q-0.655 0.942-1.393 1.823l-0.246 0.328q-0.922 1.065-1.925 2.048l-0.614 0.573c-0.328 0.307-0.655 0.614-0.983 0.901l-189.583 160.276c-5.314 4.515-12.254 7.261-19.835 7.261-16.967 0-30.721-13.754-30.721-30.721 0-9.386 4.209-17.788 10.842-23.423l125.525-106.123h-462.541c-16.966 0-30.72-13.754-30.72-30.72s13.754-30.72 30.72-30.72h462.541l-125.501-106.086c-6.677-5.672-10.886-14.074-10.886-23.46 0-16.967 13.754-30.721 30.721-30.721 7.581 0 14.521 2.746 19.879 7.298l189.908 160.588q0.799 0.696 1.556 1.454l0.635 0.655c0.471 0.512 0.922 1.024 1.372 1.556zM258.355 478.72c-16.966 0-30.72-13.754-30.72-30.72s13.754-30.72 30.72-30.72h47.657c16.966 0 30.72 13.754 30.72 30.72s-13.754 30.72-30.72 30.72h-47.657z" />
<glyph unicode="&#xe907;" glyph-name="delegate-accepted-bold" d="M953.999-46.121h-883.999c-27.343 0.035-49.497 22.197-49.521 49.539v883.98c0.035 27.335 22.185 49.486 49.517 49.521h884.002c27.335-0.035 49.486-22.185 49.521-49.517v-883.982c-0.023-27.344-22.178-49.506-49.517-49.541zM81.92 15.319h860.16v860.16h-860.16v-860.16z" />
<glyph unicode="&#xe908;" glyph-name="delegate-bold" d="M953.999-46.121h-883.999c-27.343 0.035-49.497 22.197-49.521 49.539v441.981c0 16.966 13.754 30.72 30.72 30.72s30.72-13.754 30.72-30.72v-430.080h860.16v430.080c0 16.966 13.754 30.72 30.72 30.72s30.72-13.754 30.72-30.72v-441.979c-0.023-27.344-22.178-49.506-49.517-49.541z" />
<glyph unicode="&#xe909;" glyph-name="delegate-cancelled-bold" d="M508.252 188.908c0.047 0 0.104 0 0.16 0 71.298 0 135.768 29.236 182.075 76.373 0.59 0.508 1.122 0.98 1.655 1.512 0.695 0.732 1.365 1.513 1.996 2.326 43.168 45.762 69.669 107.539 69.669 175.505 0 141.306-114.551 255.857-255.857 255.857-69.092 0-131.787-27.386-177.823-71.895-0.804-0.654-1.592-1.377-2.341-2.138-0.537-0.537-1.008-1.11-1.479-1.663-45.767-46.21-74.044-109.812-74.044-180.019 0-141.306 114.551-255.857 255.857-255.857 0.046 0 0.093 0 0.139 0zM313.692 444.908c0 0.064 0 0.14 0 0.216 0 43.219 14.168 83.128 38.112 115.337l273.491-270.853c-32.183-24.497-72.942-39.246-117.146-39.246-107.396 0-194.458 87.062-194.458 194.458 0 0.031 0 0.062 0 0.093zM702.812 444.908c0-0.096 0-0.21 0-0.324 0-41.446-13.033-79.847-35.225-111.329l-272.446 269.862c31.405 22.67 70.671 36.258 113.111 36.258 107.42 0 194.506-87.054 194.56-194.461zM972.8 476.119c-16.966 0-30.72-13.754-30.72-30.72v-430.080h-860.16v430.080c0 16.966-13.754 30.72-30.72 30.72s-30.72-13.754-30.72-30.72v-441.979c0.035-27.335 22.185-49.486 49.517-49.521h884.002c27.335 0.035 49.486 22.185 49.521 49.517v441.982c0 16.966-13.754 30.72-30.72 30.72z" />
<glyph unicode="&#xe90a;" glyph-name="delegate-completed-bold" d="M978.063 565.412c-16.966 0-30.72-13.754-30.72-30.72v-519.782h-860.16v860.16h622.182c16.966 0 30.72 13.754 30.72 30.72s-13.754 30.72-30.72 30.72h-634.102c-27.343-0.035-49.497-22.197-49.521-49.539v-883.98c0.035-27.335 22.185-49.486 49.517-49.521h883.982c27.335 0.035 49.486 22.185 49.521 49.517v531.705c0 0 0 0 0 0 0 16.959-13.742 30.708-30.698 30.72zM270.336 466.698c-5.594 5.786-13.426 9.378-22.097 9.378-16.966 0-30.72-13.754-30.72-30.72 0-8.671 3.592-16.503 9.37-22.088l268.727-268.706c5.559-5.558 13.239-8.996 21.721-8.996 10.884 0 20.446 5.66 25.903 14.198l460.874 729.621c3.295 4.821 5.261 10.777 5.261 17.192 0 16.966-13.754 30.72-30.72 30.72-11.223 0-21.040-6.018-26.401-15.003l-440.398-697.136z" />
<glyph unicode="&#xe90b;" glyph-name="delegate-denied-bold" d="M254.095 178.36c5.553-5.521 13.207-8.933 21.658-8.933 8.512 0 16.216 3.462 21.779 9.055l225.015 226.326 224.973-226.324c5.566-5.6 13.274-9.065 21.791-9.065 16.968 0 30.723 13.755 30.723 30.723 0 8.451-3.412 16.105-8.934 21.659l-225.279 226.569 225.28 226.57c5.537 5.56 8.961 13.23 8.961 21.699 0 16.984-13.768 30.752-30.752 30.752-8.515 0-16.221-3.461-21.79-9.052l-224.974-226.387-224.993 226.386c-5.571 5.599-13.281 9.063-21.801 9.063-16.984 0-30.752-13.768-30.752-30.752 0-8.464 3.419-16.129 8.952-21.69l225.279-226.589-225.28-226.57c-5.515-5.552-8.923-13.201-8.923-21.647 0-8.517 3.466-16.225 9.065-21.789zM953.999 936.919h-883.999c-27.335-0.035-49.486-22.185-49.521-49.517v-883.982c0.035-27.335 22.185-49.486 49.517-49.521h884.002c27.335 0.035 49.486 22.185 49.521 49.517v883.982c-0.035 27.335-22.185 49.486-49.517 49.521zM942.080 15.319h-860.16v860.16h860.16v-860.16z" />
<glyph unicode="&#xe90c;" glyph-name="delegate-transfered-bold" d="M953.999 936.919h-883.999c-27.335-0.035-49.486-22.185-49.521-49.517v-883.982c0.035-27.335 22.185-49.486 49.517-49.521h884.002c27.335 0.035 49.486 22.185 49.521 49.517v883.982c-0.035 27.335-22.185 49.486-49.517 49.521zM942.080 15.319h-860.16v860.16h860.16v-860.16zM161.362 418.099h602.112l-205.865-179.978c-6.882-5.676-11.236-14.205-11.236-23.751 0-16.966 13.754-30.72 30.72-30.72 8.093 0 15.454 3.129 20.941 8.244l267.369 233.803c6.449 5.66 10.498 13.92 10.498 23.125 0 9.301-4.133 17.636-10.663 23.269l-267.365 229.676c-5.344 4.615-12.358 7.427-20.029 7.427-16.968 0-30.723-13.755-30.723-30.723 0-9.297 4.129-17.629 10.654-23.263l204.082-175.67h-600.494c-16.966 0-30.72-13.754-30.72-30.72s13.754-30.72 30.72-30.72z" />
<glyph unicode="&#xe90d;" glyph-name="ellipsis-h-bold" d="M396.288 448c0 63.906 51.806 115.712 115.712 115.712s115.712-51.806 115.712-115.712c0-63.906-51.806-115.712-115.712-115.712-63.878 0.070-115.642 51.834-115.712 115.705zM51.2 448c0 63.906 51.806 115.712 115.712 115.712s115.712-51.806 115.712-115.712c0-63.906-51.806-115.712-115.712-115.712-63.878 0.070-115.642 51.834-115.712 115.705zM741.376 448c0 63.906 51.806 115.712 115.712 115.712s115.712-51.806 115.712-115.712c0-63.906-51.806-115.712-115.712-115.712-63.878 0.070-115.642 51.834-115.712 115.705z" />
<glyph unicode="&#xe90e;" glyph-name="ellipsis-v-bold" d="M512 332.288c-63.906 0-115.712 51.806-115.712 115.712s51.806 115.712 115.712 115.712c63.906 0 115.712-51.806 115.712-115.712-0.070-63.878-51.834-115.642-115.705-115.712zM512-12.8c-63.906 0-115.712 51.806-115.712 115.712s51.806 115.712 115.712 115.712c63.906 0 115.712-51.806 115.712-115.712-0.070-63.878-51.834-115.642-115.705-115.712zM512 677.376c-63.906 0-115.712 51.806-115.712 115.712s51.806 115.712 115.712 115.712c63.906 0 115.712-51.806 115.712-115.712-0.070-63.878-51.834-115.642-115.705-115.712z" />
<glyph unicode="&#xe90f;" glyph-name="show-all-bold" d="M512-54.301c-131.277 0-254.771 51.2-347.546 143.974s-143.974 216.269-143.974 347.546 51.2 254.566 143.974 347.546c92.774 92.774 216.269 143.974 347.546 143.974s254.771-51.2 347.546-143.974 143.974-216.269 143.974-347.546-51.2-254.771-143.974-347.546-216.269-143.974-347.546-143.974zM512 867.299c-237.158 0-430.080-192.922-430.080-430.080s192.922-430.080 430.080-430.080 430.080 192.922 430.080 430.080-192.922 430.080-430.080 430.080zM509.952 261.295c-7.578 0-14.95 2.662-20.89 8.192l-243.712 225.28c-12.493 11.469-13.312 30.925-1.638 43.418s30.925 13.312 43.418 1.638l222.822-206.029 222.822 206.029c12.493 11.469 31.949 10.65 43.418-1.638s10.65-31.949-1.638-43.418l-243.712-225.28c-5.939-5.53-13.312-8.192-20.89-8.192z" />
<glyph unicode="&#xe910;" glyph-name="expand-bold" d="M448.389 427.848l-366.469-366.49v296.653c0 16.966-13.754 30.72-30.72 30.72s-30.72-13.754-30.72-30.72v-370.811c0-16.966 13.754-30.72 30.72-30.72h370.811c16.966 0 30.72 13.754 30.72 30.72s-13.754 30.72-30.72 30.72h-296.653l366.49 366.469c5.561 5.561 9.001 13.243 9.001 21.729 0 16.972-13.758 30.73-30.73 30.73-8.486 0-16.168-3.44-21.729-9.001zM972.8 939.52h-370.811c-16.966 0-30.72-13.754-30.72-30.72s13.754-30.72 30.72-30.72h296.653l-366.694-366.592c-5.786-5.594-9.378-13.426-9.378-22.097 0-16.966 13.754-30.72 30.72-30.72 8.671 0 16.503 3.592 22.088 9.37l366.703 366.601v-296.653c0-16.966 13.754-30.72 30.72-30.72s30.72 13.754 30.72 30.72v370.811c0 16.966-13.754 30.72-30.72 30.72z" />
<glyph unicode="&#xe911;" glyph-name="export-bold" d="M331.899 695.808c5.314-4.516 12.254-7.262 19.835-7.262 9.386 0 17.788 4.209 23.423 10.843l106.123 125.443v-462.541c0-16.966 13.754-30.72 30.72-30.72s30.72 13.754 30.72 30.72v462.541l106.086-125.501c5.672-6.677 14.074-10.886 23.46-10.886 16.967 0 30.721 13.754 30.721 30.721 0 7.581-2.746 14.521-7.298 19.879l-160.568 189.949q-0.696 0.799-1.454 1.556l-0.655 0.635c-0.512 0.471-1.044 0.942-1.577 1.372l-0.553 0.471q-1.024 0.799-2.048 1.495l-0.942 0.573-1.556 0.819-1.085 0.553-1.413 0.635-1.004 0.369-0.266 0.102c-0.553 0.205-1.106 0.369-1.659 0.532l-0.717 0.266c-0.86 0.246-1.741 0.43-2.601 0.594l-0.737 0.123c-0.655 0.102-1.331 0.205-2.048 0.266l-0.758 0.164c-0.655 0-1.311 0-2.048 0h-0.799c-0.819 0-1.659 0-2.478-0.143h-0.451q-1.167-0.143-2.335-0.369l-1.065-0.246-1.516-0.389-1.147-0.348-1.536-0.553-0.983-0.389c-0.778-0.348-1.556-0.717-2.314-1.126l-0.778-0.451c-0.573-0.328-1.126-0.655-1.679-1.024l-0.758-0.512q-0.922-0.655-1.823-1.393l-0.328-0.266q-1.065-0.901-2.048-1.925l-0.573-0.635c-0.307-0.328-0.614-0.635-0.901-0.983l-160.276-189.583c-4.525-5.317-7.277-12.263-7.277-19.853 0-9.421 4.241-17.851 10.917-23.486zM512 272.732c-16.966 0-30.72-13.754-30.72-30.72v-47.657c0-16.966 13.754-30.72 30.72-30.72s30.72 13.754 30.72 30.72v47.657c0 16.966-13.754 30.72-30.72 30.72zM972.8 476.119c-16.966 0-30.72-13.754-30.72-30.72v-430.080h-860.16v430.080c0 16.966-13.754 30.72-30.72 30.72s-30.72-13.754-30.72-30.72v-441.979c0.035-27.335 22.185-49.486 49.517-49.521h884.002c27.335 0.035 49.486 22.185 49.521 49.517v441.982c0 16.966-13.754 30.72-30.72 30.72z" />
<glyph unicode="&#xe912;" glyph-name="help-bold" d="M863.13 792.064c-88.958 88.958-211.852 143.979-347.597 143.979-271.49 0-491.576-220.086-491.576-491.576 0-135.745 55.022-258.639 143.979-347.597s211.852-143.979 347.597-143.979c271.49 0 491.576 220.086 491.576 491.576 0 135.745-55.022 258.639-143.979 347.597zM515.564 14.336c-237.138 0-430.080 192.942-430.080 430.080s192.942 430.080 430.080 430.080 430.080-192.942 430.080-430.080-192.922-430.080-430.080-430.080zM521.585 772.792c-79.196 4.751-145.183-55.050-169.861-80.957-5.076-5.464-8.191-12.811-8.191-20.885 0-16.966 13.754-30.72 30.72-30.72 8.599 0 16.373 3.533 21.949 9.227 18.785 19.707 68.245 65.214 121.738 62.019 27.729-1.798 51.941-15.471 67.815-35.935 10.069-12.897 16.050-29.072 16.050-46.643 0-6.049-0.709-11.932-2.048-17.572-6.696-30.615-23.203-50.317-44.134-75.261-9.564-11.407-19.456-23.183-29.225-37.069-41.964-59.556-64.123-120.996-64.123-177.664 0-16.966 13.754-30.72 30.72-30.72s30.72 13.754 30.72 30.72c0 43.95 18.309 93.143 52.92 142.295 8.192 11.756 17.326 22.528 26.071 32.973 23.183 27.648 47.104 56.238 57.18 102.154 2.129 9.054 3.349 19.451 3.349 30.132 0 31.576-10.666 60.661-28.591 83.849-26.471 34.188-66.826 57.019-112.594 60.034zM541.082 188.559c0-24.952-20.227-45.179-45.179-45.179s-45.179 20.227-45.179 45.179c0 24.952 20.227 45.179 45.179 45.179s45.179-20.227 45.179-45.179z" />
<glyph unicode="&#xe913;" glyph-name="mail-bold" d="M992.133 770.191l-0.123 0.143c-0.553 0.614-1.126 1.208-1.7 1.782l-0.655 0.635c-7.917 7.592-18.678 12.271-30.532 12.288h-894.222c-11.85-0.023-22.603-4.701-30.531-12.303l-0.64-0.62c-0.594-0.573-1.147-1.167-1.7-1.782l-0.123-0.143c-7.085-7.811-11.423-18.226-11.428-29.654v-649.688c0.023-24.524 19.897-44.398 44.419-44.421h894.2c24.524 0.023 44.398 19.897 44.421 44.419v649.689c0 0.008 0 0.018 0 0.028 0 11.414-4.323 21.819-11.421 29.665zM877.937 723.517l-366.387-258.478-365.65 258.478h732.037zM81.92 107.868v585.626l411.873-291.144c4.932-3.521 11.082-5.63 17.725-5.63s12.794 2.109 17.819 5.693l412.742 291.142v-585.728h-860.16z" />
<glyph unicode="&#xe914;" glyph-name="mic-bold" d="M482.222 217.539h59.515c83.395 0 151.245 67.441 151.245 150.344v421.294c0 82.903-67.85 150.344-151.245 150.344h-59.515c-83.19 0-150.876-67.441-150.876-150.344v-421.294c-0.020-82.883 67.666-150.344 150.876-150.344zM392.765 789.176c0.209 49.145 40.097 88.904 89.272 88.904 0.065 0 0.13 0 0.195 0h59.505c49.521 0 89.805-39.875 89.805-88.904v-421.294c0-49.009-40.284-88.904-89.805-88.904h-59.515c-0.049 0-0.107 0-0.165 0-49.174 0-89.062 39.759-89.271 88.884v421.314zM727.859 181.043c54.026 50.954 85.012 119.276 85.012 187.433v179.999c0 16.966-13.754 30.72-30.72 30.72s-30.72-13.754-30.72-30.72v-179.999c0-51.302-23.962-103.342-65.741-142.746-45.507-43.008-107.418-66.56-174.305-66.56-89.805 0-145.695 36.024-176.763 66.232-39.444 38.359-62.075 90.501-62.075 143.073v179.999c0 16.966-13.754 30.72-30.72 30.72s-30.72-13.754-30.72-30.72v-179.999c0-69.059 29.409-137.216 80.671-187.126 48.947-47.596 115.425-76.308 189.583-82.412v-81.019h-179.425c-16.966 0-30.72-13.754-30.72-30.72s13.754-30.72 30.72-30.72h421.315c16.966 0 30.72 13.754 30.72 30.72s-13.754 30.72-30.72 30.72h-180.531v81.244c70.656 6.533 135.475 35.021 185.139 81.879z" />
<glyph unicode="&#xe915;" glyph-name="mic-negative" d="M482.222 217.539h59.515c83.395 0 151.245 67.441 151.245 150.344v421.294c0 82.903-67.85 150.344-151.245 150.344h-59.515c-83.19 0-150.876-67.441-150.876-150.344v-421.294c-0.020-82.883 67.666-150.344 150.876-150.344zM727.859 181.043c54.026 50.954 85.033 119.276 85.033 187.433v179.999c0 16.966-13.754 30.72-30.72 30.72s-30.72-13.754-30.72-30.72v-179.999c0-51.302-23.962-103.342-65.741-142.746-45.507-43.008-107.418-66.56-174.305-66.56-89.805 0-145.695 36.024-176.763 66.232-39.444 38.359-62.075 90.501-62.075 143.073v179.999c0 16.966-13.754 30.72-30.72 30.72s-30.72-13.754-30.72-30.72v-179.999c0-69.059 29.409-137.216 80.671-187.126 48.947-47.596 115.425-76.308 189.583-82.412v-81.019h-179.446c-16.966 0-30.72-13.754-30.72-30.72s13.754-30.72 30.72-30.72h421.315c16.966 0 30.72 13.754 30.72 30.72s-13.754 30.72-30.72 30.72h-180.531v81.244c70.656 6.533 135.475 35.021 185.139 81.879z" />
<glyph unicode="&#xe916;" glyph-name="minus-circle-bold" d="M859.566 793.866c-88.949 88.952-211.833 143.97-347.566 143.97-271.462 0-491.525-220.063-491.525-491.525 0-135.728 55.014-258.608 143.959-347.556 88.949-88.952 211.832-143.969 347.566-143.969 271.462 0 491.525 220.063 491.525 491.525 0 135.728-55.014 258.608-143.959 347.556zM512 16.22c-237.138 0-430.080 192.942-430.080 430.080s192.942 430.080 430.080 430.080 430.080-192.942 430.080-430.080-192.942-430.080-430.080-430.080zM753.664 478.72h-487.424c-16.966 0-30.72-13.754-30.72-30.72s13.754-30.72 30.72-30.72h487.424c16.966 0 30.72 13.754 30.72 30.72s-13.754 30.72-30.72 30.72z" />
<glyph unicode="&#xe917;" glyph-name="my-account-bold" d="M954.204 734.003h-888.402c0 0 0 0 0 0-26.147 0-47.347-21.185-47.37-47.327v-540.838c0.023-26.13 21.199-47.306 47.327-47.329h888.445c26.103 0.058 47.245 21.221 47.268 47.327v540.838c-0.023 26.108-21.164 47.271-47.262 47.329zM940.032 159.949h-860.16v512.614h860.16v-512.614zM148.705 527.094h392.909c16.966 0 30.72 13.754 30.72 30.72s-13.754 30.72-30.72 30.72h-392.909c-16.966 0-30.72-13.754-30.72-30.72s13.754-30.72 30.72-30.72zM148.705 415.805h312.361c16.966 0 30.72 13.754 30.72 30.72s-13.754 30.72-30.72 30.72h-312.361c-16.966 0-30.72-13.754-30.72-30.72s13.754-30.72 30.72-30.72zM549.581 282.501c0 0 0-0.001 0-0.002 0-8.997 3.868-17.091 10.031-22.709 2.584-2.336 63.717-56.833 168.288-56.833 123.29 0 172.728 65.536 174.776 68.239 3.72 5.018 5.956 11.33 5.96 18.165 0 51.754-34.55 103.855-85.545 135.046 14.437 19.475 23.111 43.979 23.111 70.508 0 65.784-53.328 119.112-119.112 119.112s-119.112-53.328-119.112-119.112c0-27.43 9.272-52.694 24.853-72.83-49.151-32.637-83.25-87.237-83.25-139.584zM697.037 386.294c12.803 3.898 21.959 15.602 21.959 29.444 0 12.302-7.231 22.915-17.675 27.821-19.114 9.806-31.838 29.197-31.838 51.559 0 31.863 25.83 57.692 57.692 57.692s57.692-25.83 57.692-57.692c0-22.267-12.615-41.588-31.089-51.206-10.636-5.251-17.606-15.701-17.606-27.778 0-14.006 9.373-25.823 22.189-29.52 44.495-13.325 81.236-50.25 87.789-86.070-13.988-12.288-50.115-36.147-118.252-36.147-0.487-0.004-1.062-0.006-1.638-0.006-33.33 0-64.911 7.485-93.155 20.866-7.244 3.472-14.419 7.512-21.278 11.994 8.327 36.676 43.86 75.342 85.127 89.043z" />
<glyph unicode="&#xe918;" glyph-name="notifications-bold" d="M592.814 846.152c-4.022 41.425-38.662 73.543-80.804 73.543s-76.782-32.118-80.778-73.211c-172.058-17.064-305.833-171.647-305.833-356.049v-385.208c0-22.63 17.572-40.96 39.178-40.96h238.879c10.911-50.643 55.314-88.043 108.452-88.043s97.54 37.4 108.32 87.314l239.195 0.729c21.606 0 39.178 18.432 39.178 40.96v385.229c0 184.381-133.652 338.964-305.787 355.697zM837.161 125.624h-650.322v364.831c0 155.218 112.845 284.836 256.881 295.117 27.255 2.012 48.605 24.619 48.605 52.213 0 0.278-0.002 0.555-0.006 0.831 0.001 0.245 0.001 0.552 0.001 0.839 0.494 10.499 9.126 18.824 19.702 18.824s19.208-8.325 19.7-18.78c0.002-0.331 0.002-0.618 0.002-0.863-0.004-0.247-0.007-0.538-0.007-0.83 0-27.594 21.351-50.201 48.433-52.203 144.208-10.25 257.053-139.909 257.053-295.127v-364.851z" />
<glyph unicode="&#xe919;" glyph-name="pencil-bold" d="M763.269 806.113c-5.559 5.557-13.238 8.994-21.719 8.994s-16.16-3.437-21.719-8.994l-638.116-638.054c-3.514-3.321-6.237-7.441-7.88-12.073l-55.69-158.546c-1.098-3.029-1.732-6.525-1.732-10.17 0-16.966 13.754-30.72 30.72-30.72 3.002 0 5.904 0.431 8.646 1.234l166.367 47.48c5.498 1.603 10.189 4.532 13.872 8.424l638.17 638.151c5.557 5.559 8.994 13.238 8.994 21.719s-3.437 16.16-8.994 21.719zM197.591 62.075l-101.806-29.041 33.628 95.826 612.127 612.004 67.42-67.379zM998.584 819.61l-110.92 110.92c-5.559 5.557-13.238 8.994-21.719 8.994s-16.16-3.437-21.719-8.994l-66.97-66.949c-5.557-5.559-8.994-13.238-8.994-21.719s3.437-16.16 8.994-21.719l110.92-110.92c5.559-5.557 13.238-8.994 21.719-8.994s16.16 3.437 21.719 8.994l66.949 66.949c5.563 5.56 9.005 13.243 9.005 21.729 0 8.476-3.433 16.151-8.984 21.709zM909.906 774.39l-67.482 67.461 23.511 23.511 67.482-67.482z" />
<glyph unicode="&#xe91a;" glyph-name="pencil-negative" d="M763.269 806.113c-5.559 5.557-13.238 8.994-21.719 8.994s-16.16-3.437-21.719-8.994l-638.116-638.075c-3.514-3.321-6.237-7.441-7.88-12.073l-55.69-158.525c-1.098-3.029-1.732-6.525-1.732-10.17 0-16.966 13.754-30.72 30.72-30.72 3.002 0 5.904 0.431 8.646 1.234l166.367 47.48c5.498 1.603 10.189 4.532 13.872 8.424l638.17 638.151c5.557 5.559 8.994 13.238 8.994 21.719s-3.437 16.16-8.994 21.719zM998.584 819.61l-110.92 110.92c-5.559 5.557-13.238 8.994-21.719 8.994s-16.16-3.437-21.719-8.994l-66.97-66.949c-5.557-5.559-8.994-13.238-8.994-21.719s3.437-16.16 8.994-21.719l110.92-110.92c5.559-5.557 13.238-8.994 21.719-8.994s16.16 3.437 21.719 8.994l66.949 66.949c5.563 5.56 9.005 13.243 9.005 21.729 0 8.476-3.433 16.151-8.984 21.709z" />
<glyph unicode="&#xe91b;" glyph-name="plus-circle-bold" d="M859.566 795.566c-88.949 88.952-211.833 143.97-347.566 143.97-271.462 0-491.525-220.063-491.525-491.525 0-135.728 55.014-258.608 143.959-347.556 88.949-88.952 211.832-143.969 347.566-143.969 271.462 0 491.525 220.063 491.525 491.525 0 135.728-55.014 258.608-143.959 347.556zM512 17.92c-237.138 0-430.080 192.942-430.080 430.080s192.942 430.080 430.080 430.080 430.080-192.922 430.080-430.080-192.942-430.080-430.080-430.080zM753.664 480.358h-210.944v213.832c0 16.966-13.754 30.72-30.72 30.72s-30.72-13.754-30.72-30.72v-213.832h-215.040c-16.966 0-30.72-13.754-30.72-30.72s13.754-30.72 30.72-30.72h215.040v-212.173c0-16.966 13.754-30.72 30.72-30.72s30.72 13.754 30.72 30.72v212.173h210.944c16.966 0 30.72 13.754 30.72 30.72s-13.754 30.72-30.72 30.72z" />
<glyph unicode="&#xe91c;" glyph-name="priority-bold" d="M512-54.784c-277.672 0.011-502.765 225.111-502.765 502.784 0 138.835 56.272 264.527 147.253 355.513 90.716 89.426 215.355 144.651 352.892 144.651 277.68 0 502.784-225.104 502.784-502.784 0-137.537-55.225-262.176-144.71-352.951-90.427-90.913-215.692-147.214-354.107-147.214-0.474 0-0.947 0.001-1.421 0.002zM512 889.344c-243.745-0.004-441.338-197.599-441.338-441.344 0-121.872 49.398-232.207 129.264-312.074 79.726-79.039 189.502-127.88 310.684-127.88 243.748 0 441.344 197.596 441.344 441.344 0 121.183-48.84 230.958-127.911 310.716-79.398 79.821-189.354 129.24-310.853 129.24-0.419 0-0.837-0.001-1.255-0.002z" />
<glyph unicode="&#xe91d;" glyph-name="redo-bold" d="M896.717 695.009v0 0c-0.266 10.865-6.133 20.304-14.814 25.564l-345.327 214.318c-4.602 2.899-10.2 4.618-16.2 4.618-16.966 0-30.72-13.754-30.72-30.72 0-10.967 5.747-20.591 14.393-26.027l269.235-167.11c-170.107-26.378-332.513-101.315-430.551-201.871-63.918-65.536-119.91-155.32-157.696-252.744s-54.579-195.441-47.636-276.48c1.404-15.791 14.57-28.078 30.606-28.078 0.040 0 0.080 0 0.12 0 0.874 0 1.755 0 2.656 0.123 15.805 1.388 28.109 14.562 28.109 30.609 0 0.926-0.041 1.842-0.121 2.747-6.136 71.768 9.388 160.2 43.733 248.92 34.816 89.866 86.016 172.278 144.323 232.038 51.692 53.023 125.092 99.328 212.234 133.919 60.414 24.725 130.684 43.497 203.852 53.053l-182.635-297.85c-3.024-4.675-4.822-10.389-4.822-16.523 0-16.966 13.754-30.72 30.72-30.72 11.007 0 20.662 5.789 26.086 14.488l219.785 350.706c2.947 4.631 4.696 10.273 4.696 16.325 0 0.223-0.002 0.444-0.007 0.666l0.001-0.033z" />
<glyph unicode="&#xe91e;" glyph-name="refresh-bold" d="M958.034 510.71c-2.178 15.022-14.968 26.434-30.423 26.434-16.968 0-30.724-13.756-30.724-30.724 0-1.513 0.109-3.001 0.321-4.456 2.417-16.293 3.809-35.293 3.81-54.617 0-214.509-174.51-389.019-389.018-389.019-0.381-0.001-0.833-0.002-1.284-0.002-65.171 0-126.555 16.21-180.342 44.817-34.167 18.158-65.293 41.196-92.48 68.195l153.868 2.456c16.756 0.277 30.232 13.924 30.232 30.72 0 16.968-13.756 30.724-30.724 30.724-0.173 0-0.345-0.001-0.517-0.004l-218.721-3.502c-16.885-0.107-30.532-13.819-30.532-30.719 0-1.104 0.058-2.194 0.172-3.268l21.943-213.677c1.864-15.346 14.811-27.119 30.508-27.119 16.966 0 30.72 13.754 30.72 30.72 0 0.938-0.042 1.867-0.124 2.784l-12.402 120.714c78.992-70.915 183.974-114.279 299.084-114.279 0.211 0 0.422 0 0.633 0 248.748 0 450.425 201.677 450.425 450.458 0 0.009 0 0.021 0 0.032 0 22.34-1.608 44.304-4.715 65.784zM122.982 447.345c0 214.508 174.51 389.018 389.018 389.018 0.151 0 0.33 0 0.508 0 108.682 0 206.919-44.721 277.312-116.764l-151.275-5.747c-16.473-0.64-29.585-14.149-29.585-30.72 0-16.978 13.764-30.742 30.742-30.742 0.407 0 0.812 0.008 1.215 0.024l213.917 8.026c3.234 0.125 6.286 0.73 9.144 1.746l-0.215-0.067c12.072 4.324 20.553 15.666 20.553 28.989 0 1.281-0.078 2.544-0.231 3.785l-22.39 216.939c-0.356 16.691-13.971 30.085-30.713 30.085-16.966 0-30.72-13.754-30.72-30.72 0-1.962 0.184-3.881 0.535-5.741l12.729-123.426c-79.221 71.816-184.85 115.774-300.747 115.774-0.274 0-0.549 0-0.823-0.001-248.738 0-450.415-201.677-450.415-450.458 0.003-16.718 0.903-33.222 2.655-49.47 1.494-13.504 14.514-25.487 30.337-25.507 0.012 0 0.024 0 0.036 0 1.128 0 2.242 0.060 3.339 0.176 15.401 1.658 27.394 14.7 27.394 30.542 0 1.133-0.061 2.252-0.181 3.354-1.352 12.169-2.133 26.443-2.138 40.898z" />
<glyph unicode="&#xe91f;" glyph-name="registryMaster-bold" d="M264.929 711.332h495.821c16.966 0 30.72 13.754 30.72 30.72s-13.754 30.72-30.72 30.72h-495.821c-16.966 0-30.72-13.754-30.72-30.72s13.754-30.72 30.72-30.72zM264.929 559.964h495.821c16.966 0 30.72 13.754 30.72 30.72s-13.754 30.72-30.72 30.72h-495.821c-16.966 0-30.72-13.754-30.72-30.72s13.754-30.72 30.72-30.72zM263.25 408.801h495.821c16.966 0 30.72 13.754 30.72 30.72s-13.754 30.72-30.72 30.72h-495.821c-16.966 0-30.72-13.754-30.72-30.72s13.754-30.72 30.72-30.72zM760.75 318.669h-495.821c-16.966 0-30.72-13.754-30.72-30.72s13.754-30.72 30.72-30.72h495.821c16.966 0 30.72 13.754 30.72 30.72s-13.754 30.72-30.72 30.72c0 0 0 0 0 0zM883.712 938.394h-743.424c-24.321-0.081-44.009-19.805-44.032-44.132v-894.773c0.023-24.329 19.711-44.053 44.024-44.134h743.432c24.321 0.081 44.009 19.805 44.032 44.132v894.773c-0.023 24.329-19.711 44.053-44.024 44.134zM866.406 16.794h-708.71v860.16h708.608v-860.16z" />
<glyph unicode="&#xe920;" glyph-name="registrysatellite-bold" d="M226.734 738.591h377.078c16.966 0 30.72 13.754 30.72 30.72s-13.754 30.72-30.72 30.72h-377.078c-16.966 0-30.72-13.754-30.72-30.72s13.754-30.72 30.72-30.72zM226.734 630.272h377.078c16.966 0 30.72 13.754 30.72 30.72s-13.754 30.72-30.72 30.72h-377.078c-16.966 0-30.72-13.754-30.72-30.72s13.754-30.72 30.72-30.72zM226.734 509.829h377.078c16.966 0 30.72 13.754 30.72 30.72s-13.754 30.72-30.72 30.72h-377.078c-16.966 0-30.72-13.754-30.72-30.72s13.754-30.72 30.72-30.72zM226.734 387.584h377.078c16.966 0 30.72 13.754 30.72 30.72s-13.754 30.72-30.72 30.72h-377.078c-16.966 0-30.72-13.754-30.72-30.72s13.754-30.72 30.72-30.72zM742.851 201.564v694.948c0 23.753-19.255 43.008-43.008 43.008h-569.344c-23.753 0-43.008-19.255-43.008-43.008v-694.948c0-23.753 19.255-43.008 43.008-43.008h569.344c23.753 0 43.008 19.255 43.008 43.008zM681.411 219.996h-532.296v658.084h532.296v-658.022zM905.605 790.18c-16.966 0-30.72-13.754-30.72-30.72v-741.54h-610.693c-16.966 0-30.72-13.754-30.72-30.72s13.754-30.72 30.72-30.72h628.326c24.18 0.035 43.772 19.627 43.807 43.803v759.176c0 16.966-13.754 30.72-30.72 30.72zM839.68 104.817v732.303c0 16.966-13.754 30.72-30.72 30.72s-30.72-13.754-30.72-30.72v-714.158h-585.093c-16.966 0-30.72-13.754-30.72-30.72s13.754-30.72 30.72-30.72h603.156c0.012 0 0.027 0 0.041 0 23.919 0 43.312 19.379 43.336 43.293z" />
<glyph unicode="&#xe921;" glyph-name="save-bold" d="M994.529 728.044l-202.486 202.486c-5.559 5.555-13.236 8.991-21.715 8.991-0.005 0-0.010 0-0.015 0h-719.113c-16.966 0-30.72-13.754-30.72-30.72v-921.6c0-16.966 13.754-30.72 30.72-30.72h921.6c16.966 0 30.72 13.754 30.72 30.72v719.114c0 0.004 0 0.009 0 0.014 0 8.48-3.436 16.157-8.991 21.716zM440.32 878.080h143.36v-245.76h-143.36v245.76zM235.52 17.92v377.958h552.96v-377.958h-552.96zM942.080 17.92h-92.16v408.678c0 16.966-13.754 30.72-30.72 30.72h-614.4c-16.966 0-30.72-13.754-30.72-30.72v-408.678h-92.16v860.16h92.16v-276.48c0-16.966 13.754-30.72 30.72-30.72h409.6c16.966 0 30.72 13.754 30.72 30.72v276.48h112.476l184.484-184.484v-675.676z" />
<glyph unicode="&#xe922;" glyph-name="search-bold" d="M993.833 8.909l-248.812 249.221c62.265 71.364 100.231 165.333 100.231 268.17 0 0.423-0.001 0.846-0.002 1.269-0.020 227.119-184.852 411.951-412.037 411.951s-412.017-184.832-412.017-412.017 184.832-412.017 412.017-412.017c0.347-0.001 0.758-0.002 1.169-0.002 102.339 0 195.9 37.584 267.632 99.703l248.257-249.697c5.568-5.586 13.271-9.043 21.78-9.043 16.984 0 30.752 13.768 30.752 30.752 0 8.474-3.428 16.147-8.972 21.71zM82.637 527.503c0 193.311 157.266 350.577 350.577 350.577s350.577-157.266 350.577-350.577c0.001-0.301 0.001-0.658 0.001-1.015 0-96.689-39.414-184.173-103.052-247.26l-0.025-0.025c-63.045-63.102-150.172-102.135-246.415-102.135-0.331 0-0.662 0-0.993 0.001-193.403-0.143-350.669 157.122-350.669 350.433z" />
<glyph unicode="&#xe923;" glyph-name="search-registry-bold" d="M786.432 296.571c-16.966 0-30.72-13.754-30.72-30.72v-248.996h-643.932v860.16h371.18c16.966 0 30.72 13.754 30.72 30.72s-13.754 30.72-30.72 30.72h-388.547c-24.303-0.023-44.003-19.695-44.073-43.984v-894.983c0.023-24.331 19.742-44.050 44.071-44.073h678.709c24.314 0.047 44.009 19.756 44.032 44.071v266.365c0 16.966-13.754 30.72-30.72 30.72zM195.85 709.693h83.968c16.966 0 30.72 13.754 30.72 30.72s-13.754 30.72-30.72 30.72h-83.968c-16.966 0-30.72-13.754-30.72-30.72s13.754-30.72 30.72-30.72zM195.85 559.268h83.968c16.966 0 30.72 13.754 30.72 30.72s-13.754 30.72-30.72 30.72h-83.968c-16.966 0-30.72-13.754-30.72-30.72s13.754-30.72 30.72-30.72zM310.538 470.282h-114.688c-16.966 0-30.72-13.754-30.72-30.72s13.754-30.72 30.72-30.72h114.688c16.966 0 30.72 13.754 30.72 30.72s-13.754 30.72-30.72 30.72zM165.13 289.137c0-16.966 13.754-30.72 30.72-30.72h211.497c16.966 0 30.72 13.754 30.72 30.72s-13.754 30.72-30.72 30.72h-211.497c-16.966 0-30.72-13.754-30.72-30.72zM964.608 292.495l-124.928 124.928c36.491 45.258 58.574 103.462 58.574 166.825 0 0.268 0 0.536-0.001 0.805 0 148.254-120.648 268.902-268.964 268.902s-268.841-120.627-268.841-268.943 120.648-268.964 268.943-268.964c0.209-0.001 0.456-0.001 0.703-0.001 63.062 0 121.017 21.866 166.697 58.43l124.398-125.338c5.646-6.251 13.78-10.162 22.828-10.162 16.966 0 30.72 13.754 30.72 30.72 0 9.032-3.898 17.154-10.104 22.775zM421.888 585.011c0.014 114.59 92.911 207.479 207.503 207.479 114.601 0 207.503-92.902 207.503-207.503 0-57.427-23.328-109.405-61.025-146.975l-0.006-0.006c-37.525-37.399-89.299-60.523-146.473-60.523-114.601 0-207.503 92.902-207.503 207.503 0 0.009 0 0.017 0 0.026z" />
<glyph unicode="&#xe924;" glyph-name="chronos-share-bold" d="M771.912 330.854c-0.007 0-0.016 0-0.024 0-58.374 0-110.497-26.761-144.771-68.684l-200.846 116.832c8.219 20.301 12.988 43.847 12.988 68.507 0 25.070-4.929 48.988-13.87 70.839l201.463 115.856c34.438-41.83 86.226-68.298 144.196-68.298 102.928 0 186.368 83.44 186.368 186.368s-83.44 186.368-186.368 186.368c-102.928 0-186.368-83.44-186.368-186.368 0-23.278 4.268-45.559 12.063-66.103l-202.871-116.663c-34.528 39.983-85.288 65.135-141.924 65.135-103.381 0-187.187-83.807-187.187-187.187s83.807-187.187 187.187-187.187c57.034 0 108.111 25.508 142.445 65.738l201.924-117.561c-7.325-19.255-11.566-41.522-11.566-64.778 0-103.381 83.807-187.187 187.187-187.187s187.187 83.807 187.187 187.187c0 103.381-83.807 187.187-187.187 187.187-0.009 0-0.018 0-0.027 0zM771.912 878.080c0 0 0 0 0 0 69.448 0 125.747-56.299 125.747-125.747s-56.299-125.747-125.747-125.747c-69.448 0-125.747 56.299-125.747 125.747 0.082 69.415 56.332 125.666 125.739 125.747zM252.088 321.761c-69.448 0-125.747 56.299-125.747 125.747s56.299 125.747 125.747 125.747c69.448 0 125.747-56.299 125.747-125.747-0.082-69.415-56.332-125.666-125.739-125.747zM771.912 17.92c-69.448 0-125.747 56.299-125.747 125.747s56.299 125.747 125.747 125.747c69.448 0 125.747-56.299 125.747-125.747-0.082-69.415-56.332-125.666-125.739-125.747z" />
<glyph unicode="&#xe925;" glyph-name="speaker-bold" d="M554.619 74.854c-0.001 0-0.002 0-0.003 0-7.708 0-14.753 2.839-20.146 7.528l-239.558 207.287h-243.712c-16.966 0-30.72 13.754-30.72 30.72v255.222c0 16.966 13.754 30.72 30.72 30.72h243.712l239.616 207.319c5.353 4.648 12.391 7.48 20.091 7.48 16.961 0 30.711-13.745 30.72-30.704v-684.852c0-16.966-13.754-30.72-30.72-30.72zM81.92 351.109h224.481c0.001 0 0.002 0 0.003 0 7.708 0 14.753-2.839 20.146-7.528l197.328-170.812v550.441l-197.366-170.762c-5.356-4.657-12.401-7.496-20.108-7.496-0.001 0-0.002 0-0.003 0h-224.481v-193.761zM727.040 326.779c-16.966 0-30.72 13.754-30.72 30.72s13.754 30.72 30.72 30.72c33.016 0 59.781 26.765 59.781 59.781s-26.765 59.781-59.781 59.781c-16.966 0-30.72 13.754-30.72 30.72s13.754 30.72 30.72 30.72c66.949 0 121.221-54.273 121.221-121.221s-54.273-121.221-121.221-121.221zM699.74 144.22c-16.966 0-30.72 13.754-30.72 30.72s13.754 30.72 30.72 30.72c133.841 0 242.34 108.499 242.34 242.34s-108.499 242.34-242.34 242.34c-16.966 0-30.72 13.754-30.72 30.72s13.754 30.72 30.72 30.72c167.506 0 303.78-136.274 303.78-303.78s-136.274-303.78-303.78-303.78z" />
<glyph unicode="&#xe926;" glyph-name="speaker-muted-bold" d="M763.72 74.854c-0.001 0-0.002 0-0.003 0-7.708 0-14.753 2.839-20.146 7.528l-239.579 207.308h-243.712c-16.966 0-30.72 13.754-30.72 30.72v255.201c0 16.966 13.754 30.72 30.72 30.72h243.712l239.616 207.34c5.353 4.648 12.391 7.48 20.091 7.48 16.966 0 30.72-13.754 30.72-30.72 0-0.002 0-0.004 0-0.006v-684.851c0 0 0 0 0 0 0-16.959-13.742-30.708-30.698-30.72zM291.021 351.109h224.481c0.001 0 0.002 0 0.003 0 7.708 0 14.753-2.839 20.146-7.528l197.328-170.812v550.441l-197.366-170.762c-5.356-4.657-12.401-7.496-20.108-7.496-0.001 0-0.002 0-0.003 0h-224.481v-193.782z" />
<glyph unicode="&#xe927;" glyph-name="tag-bold" d="M1003.11 520.274l-39.813 330.936c-3.271 27.16-24.715 48.436-51.673 51.422l-328.702 36.54c-1.559 0.143-3.371 0.224-5.203 0.224-16.419 0-31.308-6.547-42.2-17.173l-497.795-497.754c-10.636-10.664-17.213-25.382-17.213-41.636s6.577-30.971 17.214-41.637l367.41-367.41c10.659-10.657 25.383-17.249 41.646-17.249s30.987 6.592 41.646 17.249l497.93 497.869c10.617 10.63 17.183 25.309 17.183 41.521 0 2.502-0.156 4.967-0.46 7.387zM446.792 19.005l-363.827 363.827 495.124 495.247 324.465-36.27 39.404-327.68zM737.137 746.598c-41.771 0-75.633-33.862-75.633-75.633s33.862-75.633 75.633-75.633c41.771 0 75.633 33.862 75.633 75.633-0.081 41.738-33.895 75.551-75.625 75.633z" />
<glyph unicode="&#xe928;" glyph-name="tags-bold" d="M930.079 582.492l-33.485 278.528c-3.038 25.096-22.865 44.747-47.783 47.492l-276.702 30.742c-1.441 0.132-3.117 0.208-4.81 0.208-15.142 0-28.875-6.032-38.926-15.825l-418.886-418.907c-9.83-9.857-15.908-23.459-15.908-38.482s6.078-28.625 15.91-38.483l309.247-309.247c9.85-9.845 23.455-15.934 38.482-15.934s28.632 6.089 38.482 15.934l418.898 419.062c9.811 9.823 15.879 23.387 15.879 38.368 0 2.307-0.144 4.58-0.423 6.811zM457.134 167.014l-299.254 299.254 411.464 411.546 266.854-29.757 32.42-269.517zM701.44 775.455c-36.862 0-66.744-29.882-66.744-66.744s29.882-66.744 66.744-66.744c36.862 0 66.744 29.882 66.744 66.744-0.035 36.848-29.897 66.709-66.741 66.744zM839.68 403.558l-382.198-382.198-273.162 273.162c-5.594 5.786-13.426 9.378-22.097 9.378-16.966 0-30.72-13.754-30.72-30.72 0-8.671 3.592-16.503 9.37-22.088l278.967-279.048c9.614-9.617 22.898-15.565 37.571-15.565s27.956 5.948 37.57 15.565l388.137 388.076c5.335 5.519 8.623 13.046 8.623 21.342 0 16.966-13.754 30.72-30.72 30.72-8.295 0-15.823-3.288-21.35-8.632z" />
<glyph unicode="&#xe929;" glyph-name="view-all" d="M996.966 624.333c-2.253 2.867-54.886 69.222-140.083 136.192-50.381 39.526-101.786 71.27-152.986 94.003-64.922 28.877-129.434 43.418-191.898 43.418-61.85 0-126.157-14.746-190.874-43.622-50.995-22.733-102.4-54.272-152.986-93.798-85.606-66.97-138.65-133.12-140.902-135.987-8.806-11.059-9.011-27.034-0.205-38.093 2.253-2.867 55.091-69.632 140.083-137.011 50.176-39.936 101.376-71.68 151.757-94.618 64.307-29.082 128-44.032 189.235-44.032 119.603 0 242.278 47.923 354.714 138.65 83.968 67.789 132.71 135.168 134.758 137.83 8.192 11.264 7.782 26.419-0.614 37.069zM823.091 496.333c-70.451-56.525-182.272-124.109-314.982-124.109-119.398 0-229.99 67.584-301.67 124.314-53.248 42.189-93.798 84.787-114.893 108.544 21.299 23.552 61.85 65.946 115.507 107.725 72.294 56.32 183.91 123.494 304.947 123.494 122.266 0 233.677-67.174 305.562-123.494 54.067-42.189 94.618-84.992 115.302-108.339-19.251-23.552-57.344-66.15-109.773-108.134zM609.075 636.006c-8.602-3.686-18.227-5.53-28.262-4.915-31.13 1.638-56.73 26.829-58.982 57.958-0.614 7.578 0.205 14.95 2.253 21.709 1.434 5.12-2.253 10.445-7.578 10.854-7.578 0.41-15.36 0-23.142-1.229-49.562-7.578-87.654-46.899-93.389-96.666-7.987-69.427 47.718-128 116.326-124.518 55.706 2.662 101.171 47.104 105.472 102.605 0.819 9.83 0.205 19.456-1.434 28.467-1.024 4.915-6.554 7.782-11.264 5.734zM966.451 444.109c-12.698 11.059-32.154 9.83-43.418-2.867-1.638-1.843-172.237-194.15-414.72-194.15-113.254 0-217.702 52.429-285.286 96.461-74.752 48.742-122.675 98.304-123.085 98.714-11.674 12.288-31.13 12.698-43.418 1.024s-12.698-31.13-1.024-43.418c2.048-2.253 52.429-54.272 132.71-106.906 107.52-70.246 218.317-107.315 320.102-107.315 112.026 0 227.328 37.069 333.21 107.52 79.667 52.838 125.952 105.472 127.795 107.725 11.264 12.698 10.035 32.154-2.867 43.213zM808.55 219.853c-1.229-1.024-123.494-96.051-299.008-96.051-158.106 0-293.683 95.846-294.912 96.87-13.722 9.83-32.973 6.758-42.803-6.963s-6.758-32.973 6.963-42.803c6.144-4.506 152.371-108.339 330.957-108.339 196.813 0 331.571 104.858 337.306 109.158 13.312 10.445 15.565 29.901 5.12 43.213s-30.31 15.36-43.622 4.915z" />
<glyph unicode="&#xe92a;" glyph-name="undo-bold" d="M818.934-43.52q-1.311 0-2.662 0.123c-15.804 1.389-28.107 14.562-28.107 30.609 0 0.919 0.040 1.828 0.119 2.726 6.136 71.768-9.388 160.201-43.733 248.92-34.816 89.866-86.016 172.278-144.323 232.038-51.692 53.023-125.092 99.328-212.234 133.919-60.407 24.731-130.67 43.51-203.83 53.072l182.612-297.829c3.024-4.675 4.822-10.389 4.822-16.523 0-16.966-13.754-30.72-30.72-30.72-11.007 0-20.662 5.789-26.086 14.488l-219.785 350.706c-2.94 4.627-4.685 10.263-4.685 16.307 0 0.524 0.013 1.045 0.039 1.563l-0.003-0.073c0.522 10.55 6.29 19.646 14.733 24.786l345.306 214.318c4.602 2.899 10.2 4.618 16.2 4.618 16.966 0 30.72-13.754 30.72-30.72 0-10.967-5.747-20.591-14.393-26.027l-269.235-167.11c170.107-26.378 332.513-101.315 430.551-201.871 63.918-65.536 119.91-155.32 157.696-252.744s54.579-195.441 47.636-276.48c-1.394-15.8-14.565-28.099-30.608-28.099-0.011 0-0.021 0-0.032 0z" />
<glyph unicode="&#xe92b;" glyph-name="unwatched-bold" d="M995.328 480.236c-92.611 100.659-188.805 173.855-285.901 217.559-3.704 1.709-8.039 2.705-12.605 2.705-16.967 0-30.722-13.755-30.722-30.722 0-12.4 7.347-23.085 17.925-27.938 83.586-37.619 166.96-99.509 248.286-184.255-49.152-61.092-103.916-110.858-162.816-148.132-47.293-30.662-102.316-54.579-161.16-68.659-82.101-18.729-149.009-13.2-173.258-7.793-2.064 0.495-4.435 0.778-6.871 0.778-16.966 0-30.72-13.754-30.72-30.72 0-14.53 10.087-26.704 23.641-29.9 2.256-0.492 30.826-6.861 76.906-6.861 41.516 0.101 81.865 4.872 120.618 13.814 66.55 15.435 128.481 41.964 184.041 77.566 70.002 44.013 136.254 106.15 194.561 183.257 3.865 5.082 6.192 11.518 6.192 18.496 0 8.036-3.086 15.351-8.137 20.826zM511.099 379.802c-16.966 0-30.72-13.754-30.72-30.72s13.754-30.72 30.72-30.72c0.007 0 0.016 0 0.024 0 79.266 0 143.524 64.258 143.524 143.524 0 25.991-6.909 50.368-18.99 71.395-5.014 8.658-14.957 14.857-26.346 14.857-16.966 0-30.72-13.754-30.72-30.72 0-5.577 1.486-10.806 4.083-15.314 6.604-11.466 10.547-25.392 10.547-40.238 0-45.322-36.741-82.063-82.063-82.063-0.020 0-0.041 0-0.061 0zM459.919 369.091l107.95 187.208q0.369 0.614 0.717 1.249l145.9 253.030c2.586 4.407 4.113 9.705 4.113 15.36 0 16.976-13.761 30.737-30.737 30.737-11.321 0-21.212-6.12-26.545-15.232l-61.109-105.965c-29.86 6.84-83.968 14.070-154.849 1.925-62.607-10.711-126.239-34.284-189.112-70.103-77.394-44.073-154.010-107.028-227.574-187.064-5.028-5.453-8.111-12.765-8.111-20.798 0-6.208 1.842-11.986 5.008-16.818 70.687-109.308 212.695-194.832 274.155-228.338l-102.728-178.176c-2.586-4.407-4.113-9.705-4.113-15.36 0-16.976 13.761-30.737 30.737-30.737 11.321 0 21.212 6.12 26.545 15.232l209.753 363.727zM396.431 382.157l-66.048-114.545c-52.142 28.447-172.36 100.065-239.759 189.030 63.078 65.782 127.898 118.067 192.963 155.648 56.095 32.338 112.497 53.842 167.608 63.877 20.487 4.063 44.041 6.388 68.138 6.388 17.079 0 33.885-1.168 50.344-3.428l-44.713-74.005c-3.727 0.205-7.168 0.287-10.035 0.287-79.206-0.093-143.39-64.277-143.483-143.474 0.082-26.735 9.196-55.284 25.068-79.779zM432.886 461.865c0.036 35.229 22.232 65.264 53.397 76.921l-51.8-90.786c-0.934 4.149-1.485 8.924-1.515 13.822z" />
<glyph unicode="&#xe92c;" glyph-name="user-bold" d="M862.208 795.3c-88.957 89.007-211.877 144.062-347.656 144.062-271.459 0-491.52-220.061-491.52-491.52 0-154.558 71.338-292.454 182.882-382.559l1.036-0.73 0.225-0.184 0.205-0.164c83.275-66.972 190.297-107.493 306.782-107.493 271.459 0 491.52 220.061 491.52 491.52 0 135.487-54.818 258.17-143.486 347.079zM514.642 17.654c-0.508-0.002-1.108-0.003-1.709-0.003-96.339 0-185.192 32.051-256.477 86.073 9.252 89.485 91.745 185.414 192.118 218.366q1.413 0.43 2.806 0.983c11.334 4.691 19.162 15.663 19.162 28.463 0 12.44-7.394 23.153-18.027 27.984-47.887 24.353-79.989 73.077-79.989 129.3 0 79.82 64.707 144.527 144.527 144.527s144.527-64.707 144.527-144.527c0-55.919-31.757-104.42-78.219-128.453-11.102-5.486-18.055-15.925-18.055-27.988 0-14.030 9.405-25.863 22.255-29.539 103.805-30.957 188.981-122.605 197.439-209.338-72.993-59.682-167.24-95.847-269.934-95.847-0.149 0-0.297 0-0.446 0zM837.325 163.697c-11.633 38.42-33.362 76.268-63.898 110.592-31.553 35.082-69.221 63.936-111.439 85.037 36.954 38.554 61.257 91.298 61.257 149.719 0 113.843-92.288 206.131-206.131 206.131s-206.131-92.288-206.131-206.131c0-59.595 25.29-113.284 65.724-150.918-84.252-44.967-150.054-124.409-172.746-207.844-73.889 76.784-119.399 181.336-119.399 296.518 0 0.328 0 0.656 0.001 0.984 0 237.087 192.942 430.029 430.080 430.029s430.080-192.942 430.080-430.080c0-0.106 0-0.231 0-0.356 0-109.014-40.722-208.516-107.784-284.126z" />
<glyph unicode="&#xe92d;" glyph-name="users-bold" d="M973.312 169.185c-16.966 0-30.72 13.754-30.72 30.72v83.968c0 75.633-74.772 159.232-166.769 186.573-13.093 3.711-22.525 15.557-22.525 29.607 0 12.084 6.977 22.539 17.123 27.555 39.267 20 65.572 59.947 65.572 106.037 0 0.060 0 0.12 0 0.18 0 65.65-53.719 119.061-119.767 119.061s-119.767-53.412-119.767-119.071c0-0.106-0.001-0.232-0.001-0.358 0-46.292 26.577-86.377 65.306-105.828 11.484-5.228 18.858-15.929 18.858-28.353 0-12.799-7.827-23.77-18.956-28.387q-1.576-0.628-2.989-1.058c-19.844-6.669-37.032-15.022-52.907-25.238-3.595-2.211-9.073-3.852-14.933-3.852-16.966 0-30.72 13.754-30.72 30.72 0 10.672 5.442 20.073 13.702 25.579q7.239 4.556 14.448 8.631c-32.883 32.484-53.249 77.574-53.249 127.42 0 0.233 0 0.465 0.001 0.697 0 99.497 81.285 180.475 181.207 180.475s181.207-80.978 181.207-180.511c0-0.106 0-0.231 0-0.356 0-48.86-19.539-93.157-51.23-125.503 36.314-18.801 67.174-42.777 93.025-71.368 41.804-46.648 64.701-100.756 64.701-152.612v-83.968c0-0.012 0-0.027 0-0.041 0-16.93-13.696-30.662-30.612-30.72zM592.2 113.050c-16.966 0-30.72 13.754-30.72 30.72v104.223c0 81.92-80.425 172.216-179.364 201.708-13.169 3.66-22.673 15.544-22.673 29.647 0 12.134 7.035 22.625 17.249 27.616 42.602 22.015 71.097 65.558 71.097 115.756 0 71.688-58.114 129.802-129.802 129.802s-129.802-58.114-129.802-129.802c0-50.47 28.804-94.212 70.87-115.684 11.537-5.259 18.911-15.96 18.911-28.383 0-12.838-7.875-23.836-19.057-28.429q-1.515-0.607-2.888-1.016c-94.208-30.966-171.213-122.982-173.711-207.012 0.236-1.434 0.371-3.087 0.371-4.772s-0.135-3.338-0.395-4.949l0.024-88.604c0-16.966-13.754-30.72-30.72-30.72s-30.72 13.754-30.72 30.72v93.983c0 95.068 68.854 194.99 164.229 247.091-35.955 34.818-58.274 83.533-58.274 137.46 0 105.631 85.631 191.263 191.263 191.263s191.263-85.631 191.263-191.263c0-52.788-21.385-100.581-55.965-135.188 39.574-20.207 73.194-46.221 101.223-77.366 44.248-49.465 68.475-106.809 68.475-161.859v-104.223c0 0 0 0 0 0 0-16.966-13.754-30.72-30.72-30.72-0.058 0-0.115 0-0.173 0z" />
<glyph unicode="&#xe92e;" glyph-name="view" d="M996.966 467.046c-2.253 2.867-54.886 69.222-140.083 136.192-50.381 39.526-101.786 71.27-152.986 94.003-64.922 28.877-129.434 43.622-191.898 43.622-61.85 0-126.157-14.746-190.874-43.622-50.995-22.733-102.4-54.272-152.986-93.798-85.606-66.97-138.65-133.12-140.902-135.987-8.806-11.059-9.011-27.034-0.205-38.093 2.253-2.867 55.091-69.632 140.083-137.011 50.176-39.936 101.376-71.68 151.757-94.618 64.307-29.082 128-44.032 189.235-44.032 119.603 0 242.278 47.923 354.714 138.65 83.968 67.789 132.71 135.168 134.758 137.83 8.192 11.059 7.782 26.010-0.614 36.864zM823.091 338.842c-70.451-56.525-182.272-124.109-314.982-124.109-119.398 0-229.99 67.584-301.67 124.314-53.248 42.189-93.798 84.787-114.893 108.544 21.299 23.552 61.85 65.946 115.507 107.725 72.294 56.32 183.91 123.494 304.947 123.494 122.266 0 233.677-67.174 305.562-123.494 54.067-42.189 94.618-84.992 115.302-108.339-19.251-23.347-57.344-65.946-109.773-108.134zM609.075 478.515c-8.602-3.686-18.227-5.53-28.262-4.915-31.13 1.638-56.73 26.829-58.982 57.958-0.614 7.578 0.205 14.95 2.253 21.709 1.434 5.12-2.253 10.445-7.578 10.854-7.578 0.41-15.36 0-23.142-1.229-49.562-7.578-87.654-46.899-93.389-96.666-7.987-69.427 47.718-128 116.326-124.518 55.706 2.662 101.171 47.104 105.472 102.605 0.819 9.83 0.205 19.456-1.434 28.467-1.024 5.12-6.554 7.782-11.264 5.734z" />
<glyph unicode="&#xe92f;" glyph-name="world-bold" d="M1002.639 450.048c0 271.032-220.488 491.52-491.52 491.52h-1.044c-270.459-0.594-490.476-220.836-490.476-491.52 0-271.032 220.488-491.52 491.52-491.52 0.115 0 0.25 0 0.386 0 128.962 0 246.279 49.855 333.731 131.342 0.485 0.221 1.263 0.754 2.021 1.327 2.442 1.887 4.538 4.061 6.286 6.502 92.023 89.283 149.096 213.992 149.096 352.032 0 0.111 0 0.223 0 0.334zM941.199 450.048c0-0.1 0-0.219 0-0.337 0-110.538-41.869-211.297-110.613-287.284l-47.943 63.201c-0.317 0.929-0.499 2-0.499 3.113 0 0.346 0.018 0.688 0.052 1.026l19.964 43.089c3.134 6.929 4.96 15.024 4.96 23.545 0 17.91-8.067 33.936-20.765 44.643l-30.951 25.037c-8.829 7.502-16.767 15.44-24.025 23.974l-25.312 31.014c-11.266 13.128-24.463 24.192-39.232 32.866l-26.038 14.258c-1.074 1.131-1.909 2.5-2.415 4.020l-0.022 24.652c0.738 5.693 2.8 10.795 5.867 15.138l32.185 35.489c8.067 8.558 16.57 16.457 25.569 23.767l35.297 27.699c18.575 14.52 27.709 41.615 21.729 64.41l-16.056 61.276c-5.018 19.149-20.644 39.24-37.97 48.824l-72.274 39.997c-0.763 0.887-1.364 1.938-1.743 3.089l1.866 46.001c178.053-52.634 308.367-217.62 308.367-412.508zM465.388 877.691l-11.141-28.836c-5.006-12.179-10.243-22.441-16.196-32.219l-6.742-10.646c-4.799-7.408-7.652-16.465-7.652-26.188 0-19.364 11.316-36.085 27.695-43.912l17.251-8.318c6.667-3.882 12.254-8.868 16.691-14.767l11.285-17.735c0.103-0.505 0.162-1.085 0.162-1.679s-0.059-1.174-0.171-1.736l-14.613-23.844c-6.136-9.897-12.596-21.841-18.406-34.152-6.088-13.833-7.85-29.992-6.047-44.983-13.787 7.58-29.886 12.951-46.979 15.146l-18.249 1.75c-2.891 0.214-6.262 0.336-9.661 0.336-15.466 0-30.342-2.521-44.242-7.174l-20.685-7.374c-21.238-7.557-39.076-29.225-42.394-51.528l-1.229-8.192c-3.482-23.368 7.619-48.722 26.419-60.273 14.336-8.806 37.048-13.394 55.296-11.162l11.489 1.393c0.184-1.434 0.369-2.724 0.553-3.809l1.884-11.878c3.526-18.725 10.294-35.378 19.751-50.143l11.44-17.031c9.694-13.79 20.448-25.799 32.449-36.43l100.302-85.119-28.672-26.808c-10.995-10.68-21.070-22.164-30.182-34.408l-39.9-55.683c-2.353-2.216-5.267-3.862-8.506-4.701l-5.584-0.235-3.727 25.006c-1.516 10.701-2.484 23.24-2.68 35.966l-0.003 32.539c0 21.34-12.841 45.466-30.536 57.344l-26.624 17.981 21.381 26.624c7.987 10.206 12.807 23.226 12.807 37.371 0 11.666-3.279 22.566-8.965 31.83l-3.535 5.572c-10.889 15.917-25.388 28.605-42.365 37.066l-78.303 35.331c-7.296 3.948-13.473 8.988-18.561 14.982l-55.372 75.007c-5.512 7.92-10.338 16.984-14.039 26.606l-26.47 78.989c68.953 111.817 184.912 188.952 319.631 203.948zM81.039 450.048c0 0.106 0 0.232 0 0.358 0 51.417 9.066 100.717 25.687 146.388l5.095-20.938c6.176-16.923 13.959-31.569 23.45-44.916l54.804-74.278c11.47-14.52 25.839-26.223 42.289-34.351l78.379-35.383c6.47-3.624 11.885-8.36 16.168-14.003l2.817-4.798-28.672-35.471c-6.937-8.41-11.144-19.297-11.144-31.166 0-17.040 8.671-32.055 21.841-40.873l37.431-25.221c1.705-1.866 2.967-4.165 3.602-6.713l0.023-32.118c0.19-16.145 1.397-31.822 3.561-47.193l4.528-29.997c4.25-25.908 26.354-45.473 53.077-45.732h1.891l12.411 0.451c20.931 0.758 44.073 13.169 56.259 30.188l39.465 55.071c7.242 9.648 14.755 18.187 22.872 26.109l38.854 36.478c9.652 8.91 15.676 21.625 15.676 35.748 0 14.975-6.773 28.368-17.423 37.283l-110.791 94.024c-7.907 7.136-14.93 14.978-21.062 23.504l-12.075 18.029c-4.345 7.181-7.721 15.522-9.668 24.399l-1.985 12.425c-0.59 3.464-0.928 7.454-0.928 11.522 0 0.687 0.010 1.371 0.029 2.054 0.965 2.861 1.523 6.268 1.523 9.806 0 7.267-2.354 13.985-6.341 19.432-6.079 8.366-18.982 17.766-45.442 14.53l-29-3.523c-0.594-0.032-1.289-0.050-1.988-0.050-4.098 0-8.051 0.625-11.767 1.784l0.28-0.075 1.106 7.373c0.702 1.353 1.645 2.486 2.784 3.383l21.26 7.574c6.907 2.124 14.847 3.347 23.072 3.347 1.184 0 2.363-0.025 3.535-0.076l17.405-1.674c9.195-1.409 17.469-4.279 24.968-8.389l45.913-28.475c23.388-14.479 40.673-3.768 45.425-0.123s19.62 17.51 11.756 43.868l-12.882 43.172c-0.554 2.293-0.872 4.925-0.872 7.631 0 2.292 0.228 4.531 0.663 6.696 5.475 11.474 10.628 20.957 16.229 30.138l14.148 23.037c12.083 19.517 11.878 47.78-0.41 67.195l-11.53 18.145c-10.779 15.711-24.926 28.351-41.46 37.075l-5.030 2.349c7.254 11.739 14.232 25.418 20.105 39.669l21.183 54.805q20.214-0.963 39.895-3.809l-2.355-57.344c-0.942-22.835 12.902-47.452 32.911-58.511l72.847-40.264c3.539-2.784 6.329-6.363 8.124-10.476l15.858-60.447c-0.126-0.685-0.34-1.296-0.632-1.86l-34.246-26.812c-12.305-9.928-23.324-20.187-33.58-31.169l-32.427-35.78c-12.78-14.111-21.709-37.253-21.709-56.279v-24.986c0-22.405 14.336-46.49 33.915-57.344l25.743-14.090c8.374-5.143 15.565-11.168 21.772-18.095l25.148-30.811c10.25-12.123 21.181-22.982 32.981-32.835l28.561-23.075-18.739-40.468c-9.523-20.48-6.41-48.497 7.373-66.458l52.859-68.751c-73.804-62.154-169.928-99.922-274.873-99.922-0.154 0-0.309 0-0.463 0-237.134 0-430.056 192.942-430.056 430.080z" />
<glyph unicode="&#xe930;" glyph-name="arrow-next" d="M914.637 419.401c0.205 0.205 0.205 0.205 0.41 0.41 0.41 0.614 1.024 1.229 1.434 2.048 0 0.205 0.205 0.205 0.205 0.41 0.41 0.614 0.819 1.434 1.229 2.048 0 0 0 0.205 0.205 0.205 0.41 0.819 0.819 1.638 1.229 2.458 0 0 0 0.205 0 0.205 0.41 0.819 0.614 1.843 1.024 2.662 0 0 0 0.205 0 0.205 0.205 0.819 0.41 1.843 0.614 2.662 0 0.205 0 0.41 0.205 0.614 0.205 0.819 0.205 1.434 0.41 2.253 0 1.024 0.205 2.048 0.205 3.072s0 2.048-0.205 3.072c0 0.819-0.205 1.434-0.41 2.253 0 0.205 0 0.41-0.205 0.614-0.205 0.819-0.41 1.843-0.614 2.662 0 0 0 0.205 0 0.205-0.205 0.819-0.614 1.843-1.024 2.662 0 0 0 0.205 0 0.205-0.41 0.819-0.819 1.638-1.229 2.458 0 0.205 0 0.205-0.205 0.41-0.41 0.819-0.819 1.434-1.229 2.048-0.205 0.205-0.205 0.41-0.205 0.41-0.41 0.614-0.819 1.229-1.434 1.843-0.205 0.205-0.205 0.41-0.41 0.614-0.614 0.819-1.229 1.434-2.048 2.253 0 0 0 0 0 0l-240.026 239.616c-12.083 12.083-31.539 11.878-43.418 0-12.083-12.083-11.878-31.539 0-43.418l187.392-187.187h-683.418c-16.998 0-30.72-13.722-30.72-30.72s13.722-30.72 30.72-30.72h683.418l-187.392-187.187c-12.083-12.083-12.083-31.334 0-43.418 5.939-5.939 13.926-9.011 21.709-9.011s15.77 3.072 21.709 9.011l240.026 239.616c0 0 0 0 0 0 0.614 0.819 1.434 1.638 2.048 2.458z" />
<glyph unicode="&#xe931;" glyph-name="checked" d="M381.747 157.257c-7.782 0-15.77 3.072-21.709 9.011l-248.627 248.218c-12.083 12.083-12.083 31.539 0 43.418 12.083 12.083 31.539 12.083 43.418 0l226.918-226.509 487.424 486.195c12.083 11.878 31.539 11.878 43.418 0s11.878-31.539 0-43.418l-509.133-507.904c-5.939-5.939-13.926-9.011-21.709-9.011z" />
<glyph unicode="&#xe932;" glyph-name="repeat" d="M880.845 487.804c-3.686 16.589-20.070 27.034-36.659 23.347s-27.034-20.070-23.347-36.659c18.432-83.149 2.867-168.346-43.418-239.616-60.416-93.389-162.202-144.179-266.035-144.179-58.982 0-118.374 16.384-171.418 50.586-70.861 45.875-119.808 116.531-137.421 199.27-17.613 82.534-2.048 166.912 43.827 237.773 88.883 137.011 267.059 182.477 409.395 109.773l-70.656-9.83c-16.794-2.253-28.467-17.818-26.214-34.611 2.048-15.36 15.36-26.419 30.31-26.419 1.434 0 2.867 0 4.301 0.205l149.299 20.685c7.987 1.024 15.36 5.325 20.275 11.878s6.963 14.746 5.939 22.733l-20.685 149.094c-2.253 16.794-17.818 28.467-34.611 26.214s-28.467-17.818-26.214-34.611l10.854-78.438c-172.442 97.69-394.24 45.056-503.398-123.085-54.886-84.582-73.523-185.344-52.429-284.058s79.462-183.091 164.045-237.978c61.85-39.936 132.506-60.621 204.595-60.621 26.419 0 53.248 2.867 79.872 8.397 98.714 21.094 183.296 79.258 238.182 163.84 55.091 85.197 73.728 186.982 51.61 286.31z" />
<glyph unicode="&#xe933;" glyph-name="close" d="M555.418 438.857l357.171 357.171c12.083 12.083 12.083 31.539 0 43.418-12.083 12.083-31.539 12.083-43.418 0l-357.171-357.171-357.171 357.171c-12.083 12.083-31.539 12.083-43.418 0-12.083-12.083-12.083-31.539 0-43.418l357.171-357.171-357.171-357.171c-12.083-12.083-12.083-31.539 0-43.418 5.939-5.939 13.926-9.011 21.709-9.011s15.77 3.072 21.709 9.011l357.171 357.171 357.171-357.171c5.939-5.939 13.926-9.011 21.709-9.011s15.77 3.072 21.709 9.011c12.083 12.083 12.083 31.539 0 43.418l-357.171 357.171z" />
<glyph unicode="&#xe934;" glyph-name="message-bold" d="M972.8 872.141h-921.6c-16.998 0-30.72-13.722-30.72-30.72v-568.934c0-16.998 13.722-30.72 30.72-30.72h538.624l231.834-209.92c5.734-5.325 13.107-7.987 20.685-7.987 4.096 0 8.397 0.819 12.493 2.662 11.059 4.915 18.227 15.974 18.227 28.058v187.187h99.738c16.998 0 30.72 13.722 30.72 30.72v568.934c0 16.998-13.722 30.72-30.72 30.72zM942.080 303.206h-99.738c-16.998 0-30.72-13.722-30.72-30.72v-148.685l-189.235 171.418c-5.734 5.12-13.107 7.987-20.685 7.987h-519.782v507.494h860.16v-507.494zM158.925 619.213h704.717c16.998 0 30.925 13.722 30.925 30.72s-13.722 30.72-30.72 30.72h-704.922c-16.998 0-30.72-13.722-30.72-30.72s13.722-30.72 30.72-30.72zM158.925 427.52h704.717c16.998 0 30.925 13.722 30.925 30.72s-13.722 30.72-30.72 30.72h-704.922c-16.998 0-30.72-13.722-30.72-30.72s13.722-30.72 30.72-30.72z" />
<glyph unicode="&#xe935;" glyph-name="filter" d="M512-43.52c-16.998 0-30.72 13.722-30.72 30.72v480.666l-446.054 270.746c-9.216 5.53-14.746 15.565-14.746 26.214v143.974c0 16.998 13.722 30.72 30.72 30.72h921.6c16.998 0 30.72-13.722 30.72-30.72v-143.974c0-10.65-5.53-20.685-14.746-26.214l-446.054-270.746v-480.666c0-16.998-13.722-30.72-30.72-30.72zM81.92 782.029l430.080-261.12 430.080 261.12v96.051h-860.16v-96.051z" />
<glyph unicode="&#xe936;" glyph-name="calendar" d="M926.106 817.254h-160.973v91.546c0 16.998-13.722 30.72-30.72 30.72s-30.72-13.722-30.72-30.72v-91.546h-382.157v91.546c0 16.998-13.722 30.72-30.72 30.72s-30.72-13.722-30.72-30.72v-91.546h-162.202c-16.998 0-30.72-13.722-30.72-30.72v-799.334c0-16.998 13.722-30.72 30.72-30.72h828.006c16.998 0 30.72 13.722 30.72 30.72v799.334c0.205 16.998-13.722 30.72-30.515 30.72zM895.386 17.92h-766.771v737.894h131.482v-66.97c0-16.998 13.722-30.72 30.72-30.72s30.72 13.722 30.72 30.72v66.97h381.952v-66.97c0-16.998 13.722-30.72 30.72-30.72s30.72 13.722 30.72 30.72v66.97h130.253v-737.894zM222.413 556.749h136.806v-102.605h-136.806v102.605zM222.413 393.114h136.806v-102.605h-136.806v102.605zM222.413 229.478h136.806v-102.605h-136.806v102.605zM443.597 556.749h136.806v-102.605h-136.806v102.605zM443.597 393.114h136.806v-102.605h-136.806v102.605zM665.805 556.749h136.806v-102.605h-136.806v102.605zM443.597 229.478h136.806v-102.605h-136.806v102.605zM665.805 393.114h136.806v-102.605h-136.806v102.605zM665.805 229.478h136.806v-102.605h-136.806v102.605z" />
<glyph unicode="&#xe937;" glyph-name="idea" d="M748.134 826.88c-63.898 63.488-148.48 97.894-238.592 97.28-183.706-1.229-333.005-151.962-332.595-335.667 0.205-94.413 40.346-184.73 110.387-248.013 29.286-26.419 54.067-65.331 69.222-122.88 0.205-1.434 0.614-3.072 1.229-4.506 9.421-37.069 14.95-74.957 14.95-106.291v-5.939c0-16.998 13.722-30.72 30.72-30.72h217.498c16.998 0 30.72 13.722 30.72 30.72 0 83.968 37.069 195.584 86.63 240.845 69.222 63.283 108.954 153.6 108.954 247.398-0.205 89.907-35.226 174.285-99.123 237.773zM591.258 131.584h-158.31c-1.229 19.046-4.096 39.731-7.987 60.826h174.694c-4.096-21.504-6.758-42.189-8.397-60.826zM696.73 386.97c-37.274-34.202-64.512-74.752-81.92-133.325h-204.595c-0.819 2.867-1.843 5.939-2.662 8.806-13.926 44.032-39.117 87.45-78.848 123.494-57.139 51.814-90.112 125.542-90.112 202.547-0.614 150.118 121.446 273.203 271.36 274.227 0.614 0 1.229 0 2.048 0 72.704 0 141.107-28.262 192.922-79.462 52.224-51.814 80.896-120.832 80.896-194.15-0.205-76.8-32.563-150.323-89.088-202.138zM599.654 32.666h-174.694c-16.998 0-30.72-13.722-30.72-30.72s13.722-30.72 30.72-30.72h174.694c16.998 0 30.72 13.722 30.72 30.72s-13.722 30.72-30.72 30.72z" />
<glyph unicode="&#xe938;" glyph-name="sign-minus" d="M858.112 417.28h-696.32c-16.998 0-30.72 13.722-30.72 30.72s13.722 30.72 30.72 30.72h696.32c16.998 0 30.72-13.722 30.72-30.72s-13.722-30.72-30.72-30.72z" />
<glyph unicode="&#xe939;" glyph-name="sign-plus" d="M870.605 478.72h-327.885v316.006c0 16.998-13.722 30.72-30.72 30.72s-30.72-13.722-30.72-30.72v-316.006h-306.995c-16.998 0-30.72-13.722-30.72-30.72s13.722-30.72 30.72-30.72h306.995v-318.874c0-16.998 13.722-30.72 30.72-30.72s30.72 13.722 30.72 30.72v318.874h327.885c16.998 0 30.72 13.722 30.72 30.72s-13.722 30.72-30.72 30.72z" />
<glyph unicode="&#xe93a;" glyph-name="share-bold" d="M771.912 330.854c-0.007 0-0.016 0-0.024 0-58.374 0-110.497-26.761-144.771-68.684l-200.846 116.832c8.219 20.301 12.988 43.847 12.988 68.507 0 25.070-4.929 48.988-13.87 70.839l201.463 115.856c34.438-41.83 86.226-68.298 144.196-68.298 102.928 0 186.368 83.44 186.368 186.368s-83.44 186.368-186.368 186.368c-102.928 0-186.368-83.44-186.368-186.368 0-23.278 4.268-45.559 12.063-66.103l-202.871-116.663c-34.528 39.983-85.288 65.135-141.924 65.135-103.381 0-187.187-83.807-187.187-187.187s83.807-187.187 187.187-187.187c57.034 0 108.111 25.508 142.445 65.738l201.924-117.561c-7.325-19.255-11.566-41.522-11.566-64.778 0-103.381 83.807-187.187 187.187-187.187s187.187 83.807 187.187 187.187c0 103.381-83.807 187.187-187.187 187.187-0.009 0-0.018 0-0.027 0zM771.912 878.080c0 0 0 0 0 0 69.448 0 125.747-56.299 125.747-125.747s-56.299-125.747-125.747-125.747c-69.448 0-125.747 56.299-125.747 125.747 0.082 69.415 56.332 125.666 125.739 125.747zM252.088 321.761c-69.448 0-125.747 56.299-125.747 125.747s56.299 125.747 125.747 125.747c69.448 0 125.747-56.299 125.747-125.747-0.082-69.415-56.332-125.666-125.739-125.747zM771.912 17.92c-69.448 0-125.747 56.299-125.747 125.747s56.299 125.747 125.747 125.747c69.448 0 125.747-56.299 125.747-125.747-0.082-69.415-56.332-125.666-125.739-125.747z" />
<glyph unicode="&#xe93b;" glyph-name="order-ascendent-bold" d="M972.8-52.663h-921.6c-16.998 0-30.72 13.722-30.72 30.72s13.722 30.72 30.72 30.72h921.6c16.998 0 30.72-13.722 30.72-30.72s-13.722-30.72-30.72-30.72zM249.856 868.937h-198.656c-16.998 0-30.72 13.722-30.72 30.72s13.722 30.72 30.72 30.72h198.656c16.998 0 30.72-13.722 30.72-30.72s-13.722-30.72-30.72-30.72zM249.856 561.737h-198.656c-16.998 0-30.72 13.722-30.72 30.72s13.722 30.72 30.72 30.72h198.656c16.998 0 30.72-13.722 30.72-30.72s-13.722-30.72-30.72-30.72zM448.307 254.537h-397.107c-16.998 0-30.72 13.722-30.72 30.72s13.722 30.72 30.72 30.72h397.107c16.998 0 30.72-13.722 30.72-30.72s-13.722-30.72-30.72-30.72zM710.656 61.206c-16.998 0-30.72 13.722-30.72 30.72v799.13c0 16.998 13.722 30.72 30.72 30.72s30.72-13.722 30.72-30.72v-799.13c0-16.998-13.722-30.72-30.72-30.72zM972.8 606.793c-7.782 0-15.77 3.072-21.709 9.011l-240.435 240.435-240.435-240.435c-12.083-12.083-31.539-12.083-43.418 0s-12.083 31.539 0 43.418l262.144 262.144c5.734 5.734 13.517 9.011 21.709 9.011s15.974-3.277 21.709-9.011l262.144-262.144c12.083-12.083 12.083-31.539 0-43.418-5.939-6.144-13.926-9.011-21.709-9.011z" />
<glyph unicode="&#xe93c;" glyph-name="order-descendent-bold" d="M972.8 868.937h-921.6c-16.998 0-30.72 13.722-30.72 30.72s13.722 30.72 30.72 30.72h921.6c16.998 0 30.72-13.722 30.72-30.72s-13.722-30.72-30.72-30.72zM249.856-52.663h-198.656c-16.998 0-30.72 13.722-30.72 30.72s13.722 30.72 30.72 30.72h198.656c16.998 0 30.72-13.722 30.72-30.72s-13.722-30.72-30.72-30.72zM249.856 254.537h-198.656c-16.998 0-30.72 13.722-30.72 30.72s13.722 30.72 30.72 30.72h198.656c16.998 0 30.72-13.722 30.72-30.72s-13.722-30.72-30.72-30.72zM448.307 561.737h-397.107c-16.998 0-30.72 13.722-30.72 30.72s13.722 30.72 30.72 30.72h397.107c16.998 0 30.72-13.722 30.72-30.72s-13.722-30.72-30.72-30.72zM710.656-44.061c-16.998 0-30.72 13.722-30.72 30.72v799.13c0 16.998 13.722 30.72 30.72 30.72s30.72-13.722 30.72-30.72v-799.13c0-16.998-13.722-30.72-30.72-30.72zM710.656-52.663c-8.192 0-15.974 3.277-21.709 9.011l-262.144 262.144c-12.083 12.083-12.083 31.539 0 43.418 12.083 12.083 31.539 12.083 43.418 0l240.435-240.435 240.435 240.435c12.083 12.083 31.539 12.083 43.418 0 12.083-12.083 12.083-31.539 0-43.418l-262.144-262.144c-5.734-5.734-13.517-9.011-21.709-9.011z" />
<glyph unicode="&#xe93d;" glyph-name="messages-bold" d="M972.8 898.56h-647.578c-16.998 0-30.72-13.722-30.72-30.72v-256h-243.302c-16.998 0-30.72-13.722-30.72-30.72v-399.77c0-16.998 13.722-30.72 30.72-30.72h61.030v-122.47c0-12.083 7.168-23.142 18.227-28.058 4.096-1.843 8.192-2.662 12.493-2.662 7.578 0 14.95 2.662 20.685 7.987l160.358 145.203h374.989c16.998 0 30.72 13.722 30.72 30.72v208.896l130.867-118.579c5.734-5.12 13.107-7.987 20.685-7.987 4.301 0 8.397 0.819 12.493 2.662 11.059 4.915 18.227 15.974 18.227 28.058v122.47h60.826c16.998 0 30.72 13.722 30.72 30.72v420.25c0 16.998-13.722 30.72-30.72 30.72zM312.115 212.070c-7.578 0-14.95-2.867-20.685-7.987l-117.76-106.701v83.763c0 16.998-13.722 30.72-30.72 30.72h-61.030v338.534h212.582v-102.81c0-16.998 13.722-30.72 30.72-30.72h343.040v-204.8h-356.147zM942.080 478.31h-61.030c-16.998 0-30.72-13.722-30.72-30.72v-83.763l-117.76 106.701c-5.734 5.12-12.902 7.987-20.685 7.987h-355.942v102.605c0 0 0 0 0 0s0 0 0 0v256h586.138v-358.81z" />
<glyph unicode="&#xe93e;" glyph-name="arrow-prev" d="M109.568 428.544c-0.205 0.205-0.205 0.205-0.41 0.41-0.41 0.614-1.024 1.229-1.434 2.048 0 0.205-0.205 0.205-0.205 0.41-0.41 0.614-0.819 1.434-1.229 2.048 0 0 0 0.205-0.205 0.205-0.41 0.819-0.819 1.638-1.229 2.458v0.205c-0.41 0.819-0.614 1.843-1.024 2.662v0.205c-0.205 0.819-0.41 1.843-0.614 2.662 0 0.205 0 0.41-0.205 0.614-0.205 0.819-0.205 1.434-0.41 2.253 0 1.024-0.205 2.048-0.205 3.072s0 2.048 0.205 3.072c0 0.819 0.205 1.434 0.41 2.253 0 0.205 0 0.41 0.205 0.614 0.205 0.819 0.41 1.843 0.614 2.662v0.205c0.205 0.819 0.614 1.843 1.024 2.662v0.205c0.41 0.819 0.819 1.638 1.229 2.458 0 0.205 0 0.205 0.205 0.41 0.41 0.819 0.819 1.434 1.229 2.048 0.205 0.205 0.205 0.41 0.205 0.41 0.41 0.614 0.819 1.229 1.434 1.843 0.205 0.205 0.205 0.41 0.41 0.614 0.614 0.819 1.229 1.434 2.048 2.253v0l240.026 239.616c12.083 12.083 31.539 11.878 43.418 0 12.083-12.083 11.878-31.539 0-43.418l-187.392-187.187h683.418c16.998 0 30.72-13.722 30.72-30.72s-13.722-30.72-30.72-30.72h-683.418l187.392-187.187c12.083-12.083 12.083-31.334 0-43.418-5.939-5.939-13.926-9.011-21.709-9.011s-15.77 3.072-21.709 9.011l-240.026 239.616c-0.614 0.819-1.434 1.638-2.048 2.458z" />
<glyph unicode="&#xe93f;" glyph-name="chat-full-bold" d="M972.8 898.56h-647.578c-16.998 0-30.72-13.722-30.72-30.72v-420.25c0-16.998 13.722-30.72 30.72-30.72h374.989l160.358-145.203c5.734-5.12 13.107-7.987 20.685-7.987 4.301 0 8.397 0.819 12.493 2.662 11.059 4.915 18.227 15.974 18.227 28.058v122.47h60.826c16.998 0 30.72 13.722 30.72 30.72v420.25c0 16.998-13.722 30.72-30.72 30.72zM669.491 570.88h-225.28c-16.998 0-30.72 13.722-30.72 30.72s13.722 30.72 30.72 30.72h225.28c16.998 0 30.72-13.722 30.72-30.72s-13.722-30.72-30.72-30.72zM853.811 712.397h-409.6c-16.998 0-30.72 13.722-30.72 30.72s13.722 30.72 30.72 30.72h409.6c16.998 0 30.72-13.722 30.72-30.72s-13.722-30.72-30.72-30.72zM697.139 378.163c-5.734 5.12-12.902 7.987-20.685 7.987h-351.232c-33.792 0-61.44 27.648-61.44 61.44v133.53c0 16.998-13.722 30.72-30.72 30.72h-181.862c-16.998 0-30.72-13.722-30.72-30.72v-399.77c0-16.998 13.722-30.72 30.72-30.72h61.030v-122.47c0-12.083 7.168-23.142 18.227-28.058 4.096-1.843 8.192-2.662 12.493-2.662 7.578 0 14.95 2.662 20.685 7.987l160.358 145.203h374.989c16.998 0 30.72 13.722 30.72 30.72v153.805c0 8.602-3.686 16.998-10.035 22.733l-22.528 20.275z" />
<glyph unicode="&#xe940;" glyph-name="task-delegated" d="M713.728 844.288c0 0 0 0 0 0-16.998 0-30.72-13.722-30.72-30.72v-281.19c-4.301 5.12-8.806 9.83-13.517 14.541-48.333 48.333-112.64 74.957-181.043 74.957-141.107 0-256-114.893-256-256 0-68.403 26.624-132.71 74.957-181.043s112.64-74.957 181.043-74.957c77.824 0 147.661 34.816 194.56 89.907v-58.982c0-16.998 13.722-30.72 30.72-30.72s30.72 13.722 30.72 30.72v672.768c0 16.998-13.722 30.72-30.72 30.72zM488.448 171.52c-52.019 0-100.762 20.275-137.626 56.934-36.659 36.659-56.934 85.606-56.934 137.626 0 107.315 87.245 194.56 194.56 194.56 52.019 0 100.762-20.275 137.626-56.934s56.934-85.606 56.934-137.626c0-107.315-87.245-194.56-194.56-194.56z" />
<glyph unicode="&#xe941;" glyph-name="task-pending" d="M535.552 674.714c-77.824 0-147.661-34.816-194.56-89.907v59.187c0 16.998-13.722 30.72-30.72 30.72s-30.72-13.722-30.72-30.72v-672.768c0-16.998 13.722-30.72 30.72-30.72s30.72 13.722 30.72 30.72v280.986c4.301-5.12 8.806-9.83 13.517-14.541 48.333-48.333 112.64-74.957 181.043-74.957 141.107 0 256 114.893 256 256s-114.893 256-256 256zM535.552 224.154c-52.019 0-100.762 20.275-137.626 56.934-36.659 36.659-56.934 85.606-56.934 137.626 0 107.315 87.245 194.56 194.56 194.56s194.56-87.245 194.56-194.56c0-107.315-87.245-194.56-194.56-194.56z" />
<glyph unicode="&#xe942;" glyph-name="task-priority-a" d="M789.299 152.269l-105.472 260.506c0 0 0 0.205 0 0.205l-143.36 353.69c-4.71 11.674-15.974 19.251-28.467 19.251s-23.757-7.578-28.467-19.251l-143.36-353.69c0 0 0-0.205 0-0.205l-105.472-260.506c-6.349-15.77 1.229-33.587 16.998-39.936s33.587 1.229 39.936 16.998l97.69 240.845h245.555l97.485-241.050c4.915-11.878 16.384-19.251 28.467-19.251 3.891 0 7.782 0.819 11.469 2.253 15.77 6.554 23.347 24.576 16.998 40.141zM414.106 431.616l97.894 241.664 97.894-241.664h-195.789z" />
<glyph unicode="&#xe943;" glyph-name="task-priority-b" d="M663.142 482.816c32.768 32.154 53.043 76.8 53.043 126.157 0 97.485-79.258 176.947-176.947 176.947h-276.070c-16.998 0-30.72-13.722-30.72-30.72v-614.4c0-16.998 13.722-30.72 30.72-30.72h336.486c105.677 0 191.693 86.016 191.693 191.693 0.205 83.558-53.453 154.829-128.205 181.043zM293.888 724.48h245.35c63.693 0 115.507-51.814 115.507-115.507s-51.814-115.507-115.507-115.507h-245.35v231.014zM599.859 171.52h-305.971v260.71h305.766c71.885 0 130.253-58.368 130.253-130.253s-58.368-130.458-130.048-130.458z" />
<glyph unicode="&#xe944;" glyph-name="task-priority-c" d="M760.832 110.080h-190.669c-186.163 0-337.715 151.552-337.715 337.715s151.552 337.715 337.715 337.715h190.669c16.998 0 30.72-13.722 30.72-30.72s-13.722-30.72-30.72-30.72h-190.669c-152.371 0-276.275-123.904-276.275-276.275s123.904-276.275 276.275-276.275h190.669c16.998 0 30.72-13.722 30.72-30.72s-13.722-30.72-30.72-30.72z" />
<glyph unicode="&#xe945;" glyph-name="task-priority-d" d="M453.837 110.080h-190.669c-16.998 0-30.72 13.722-30.72 30.72v613.786c0 16.998 13.722 30.72 30.72 30.72h190.669c186.163 0 337.715-151.552 337.715-337.715 0-185.958-151.552-337.51-337.715-337.51zM293.888 171.52h159.949c152.371 0 276.275 123.904 276.275 276.275s-123.904 276.275-276.275 276.275h-159.949v-552.55z" />
<glyph unicode="&#xe946;" glyph-name="task-rejected" d="M656.589 592.998c-3.277 16.589-19.456 27.443-36.045 24.166-58.163-11.469-108.544-42.189-144.998-84.992v59.187c0 16.998-13.722 30.72-30.72 30.72s-30.72-13.722-30.72-30.72v-450.56c0-16.998 13.722-30.72 30.72-30.72s30.72 13.722 30.72 30.72v225.28c0 92.774 65.946 173.056 156.877 190.874 16.589 3.277 27.443 19.456 24.166 36.045z" />
<glyph unicode="&#xe947;" glyph-name="chronosgrama" d="M660.685 702.23h99.942c16.998 0 30.72 13.722 30.72 30.72s-13.722 30.72-30.72 30.72h-99.942c-16.998 0-30.72-13.722-30.72-30.72s13.926-30.72 30.72-30.72zM183.091 702.23h21.094c16.998 0 30.72 13.722 30.72 30.72s-13.722 30.72-30.72 30.72h-21.094c-16.998 0-30.72-13.722-30.72-30.72s13.722-30.72 30.72-30.72zM414.925 550.883h140.902c16.998 0 30.72 13.722 30.72 30.72s-13.722 30.72-30.72 30.72h-140.902c-16.998 0-30.72-13.722-30.72-30.72s13.926-30.72 30.72-30.72zM183.091 550.883h21.094c16.998 0 30.72 13.722 30.72 30.72s-13.722 30.72-30.72 30.72h-21.094c-16.998 0-30.72-13.722-30.72-30.72s13.722-30.72 30.72-30.72zM548.045 430.46c0-16.998 13.722-30.72 30.72-30.72h241.664c16.998 0 30.72 13.722 30.72 30.72s-13.722 30.72-30.72 30.72h-241.664c-16.794 0-30.72-13.926-30.72-30.72zM181.248 399.74h22.733c16.998 0 30.72 13.722 30.72 30.72s-13.722 30.72-30.72 30.72h-22.733c-16.998 0-30.72-13.722-30.72-30.72s13.926-30.72 30.72-30.72zM414.925 248.188h345.702c16.998 0 30.72 13.722 30.72 30.72s-13.722 30.72-30.72 30.72h-345.702c-16.998 0-30.72-13.722-30.72-30.72s13.926-30.72 30.72-30.72zM203.981 309.628h-20.89c-16.998 0-30.72-13.722-30.72-30.72s13.722-30.72 30.72-30.72h21.094c16.998 0 30.72 13.722 30.72 30.72s-13.926 30.72-30.925 30.72zM956.826 929.353h-889.651c-25.805 0-46.694-19.866-46.694-44.237v-894.771c0-24.371 20.89-44.032 46.694-44.032h889.446c25.805 0 46.694 19.866 46.694 44.032v894.771c0.205 24.371-20.685 44.237-46.49 44.237zM942.080 7.753h-860.16v860.16h860.16v-860.16z" />
<glyph unicode="&#xe948;" glyph-name="htd" d="M619.725 702.23h100.147c16.998 0 30.72 13.722 30.72 30.72s-13.722 30.72-30.72 30.72h-100.147c-16.998 0-30.72-13.722-30.72-30.72s13.722-30.72 30.72-30.72zM183.091 763.67h-21.094c-16.998 0-30.72-13.722-30.72-30.72s13.722-30.72 30.72-30.72h21.094c16.998 0 30.72 13.722 30.72 30.72s-13.926 30.72-30.72 30.72zM650.035 581.603c0-16.998 13.722-30.72 30.72-30.72h100.147c16.998 0 30.72 13.722 30.72 30.72s-13.722 30.72-30.72 30.72h-100.147c-16.794 0-30.72-13.722-30.72-30.72zM183.091 612.323h-21.094c-16.998 0-30.72-13.722-30.72-30.72s13.722-30.72 30.72-30.72h21.094c16.998 0 30.72 13.722 30.72 30.72s-13.926 30.72-30.72 30.72zM183.091 461.18h-22.733c-16.998 0-30.72-13.722-30.72-30.72s13.722-30.72 30.72-30.72h22.733c16.998 0 30.72 13.722 30.72 30.72 0 16.794-13.926 30.72-30.72 30.72zM863.232 309.628h-243.712c-16.998 0-30.72-13.722-30.72-30.72s13.722-30.72 30.72-30.72h243.712c16.998 0 30.72 13.722 30.72 30.72s-13.926 30.72-30.72 30.72zM863.232 186.748h-243.712c-16.998 0-30.72-13.722-30.72-30.72s13.722-30.72 30.72-30.72h243.712c16.998 0 30.72 13.722 30.72 30.72s-13.926 30.72-30.72 30.72zM183.091 309.628h-21.094c-16.998 0-30.72-13.722-30.72-30.72s13.722-30.72 30.72-30.72h21.094c16.998 0 30.72 13.722 30.72 30.72s-13.926 30.72-30.72 30.72zM284.877 702.23h123.494c16.998 0 30.72 13.722 30.72 30.72s-13.722 30.72-30.72 30.72h-123.494c-16.998 0-30.72-13.722-30.72-30.72s13.722-30.72 30.72-30.72zM284.877 550.883h123.494c16.998 0 30.72 13.722 30.72 30.72s-13.722 30.72-30.72 30.72h-123.494c-16.998 0-30.72-13.722-30.72-30.72s13.722-30.72 30.72-30.72zM283.238 399.74h125.133c16.998 0 30.72 13.722 30.72 30.72s-13.722 30.72-30.72 30.72h-125.133c-16.998 0-30.72-13.722-30.72-30.72s13.722-30.72 30.72-30.72zM408.371 309.628h-123.494c-16.998 0-30.72-13.722-30.72-30.72s13.722-30.72 30.72-30.72h123.494c16.998 0 30.72 13.722 30.72 30.72s-13.926 30.72-30.72 30.72zM956.826 929.353h-889.651c-25.805 0-46.694-19.866-46.694-44.237v-894.771c0-24.371 20.89-44.032 46.694-44.032h889.446c25.805 0 46.694 19.866 46.694 44.032v894.771c0.205 24.371-20.685 44.237-46.49 44.237zM942.080 461.18h-399.36v406.733h399.36v-406.733zM81.92 867.913h399.36v-860.16h-399.36v860.16zM542.72 7.753v391.987h399.36v-391.987h-399.36z" />
<glyph unicode="&#xe949;" glyph-name="rm" d="M312.525 702.23h489.062c16.998 0 30.72 13.722 30.72 30.72s-13.722 30.72-30.72 30.72h-489.062c-16.998 0-30.72-13.722-30.72-30.72s13.926-30.72 30.72-30.72zM183.091 702.23h21.094c16.998 0 30.72 13.722 30.72 30.72s-13.722 30.72-30.72 30.72h-21.094c-16.998 0-30.72-13.722-30.72-30.72s13.722-30.72 30.72-30.72zM312.525 550.883h489.062c16.998 0 30.72 13.722 30.72 30.72s-13.722 30.72-30.72 30.72h-489.062c-16.998 0-30.72-13.722-30.72-30.72s13.926-30.72 30.72-30.72zM183.091 550.883h21.094c16.998 0 30.72 13.722 30.72 30.72s-13.722 30.72-30.72 30.72h-21.094c-16.998 0-30.72-13.722-30.72-30.72s13.722-30.72 30.72-30.72zM312.525 399.74h487.424c16.998 0 30.72 13.722 30.72 30.72s-13.722 30.72-30.72 30.72h-487.424c-16.998 0-30.72-13.722-30.72-30.72s13.926-30.72 30.72-30.72zM181.248 399.74h22.733c16.998 0 30.72 13.722 30.72 30.72s-13.722 30.72-30.72 30.72h-22.733c-16.998 0-30.72-13.722-30.72-30.72s13.926-30.72 30.72-30.72zM312.525 248.188h489.062c16.998 0 30.72 13.722 30.72 30.72s-13.722 30.72-30.72 30.72h-489.062c-16.998 0-30.72-13.722-30.72-30.72s13.926-30.72 30.72-30.72zM203.981 309.628h-20.89c-16.998 0-30.72-13.722-30.72-30.72s13.722-30.72 30.72-30.72h21.094c16.998 0 30.72 13.722 30.72 30.72s-13.926 30.72-30.925 30.72zM956.826 929.353h-889.651c-25.805 0-46.694-19.866-46.694-44.237v-894.771c0-24.371 20.89-44.032 46.694-44.032h889.446c25.805 0 46.694 19.866 46.694 44.032v894.771c0.205 24.371-20.685 44.237-46.49 44.237zM942.080 7.753h-860.16v860.16h860.16v-860.16z" />
<glyph unicode="&#xe94a;" glyph-name="task-check" d="M429.261 198.758c-8.192 0-15.974 3.277-21.709 9.011l-212.173 211.763c-12.083 12.083-12.083 31.334 0 43.418s31.334 12.083 43.418 0l187.187-186.778 356.352 479.642c10.035 13.517 29.286 16.384 43.008 6.349 13.517-10.035 16.384-29.286 6.349-43.008l-377.651-507.904c-5.325-7.168-13.517-11.674-22.323-12.288-0.819 0-1.638-0.205-2.458-0.205z" />
<glyph unicode="&#xe94b;" glyph-name="task-double-check" d="M663.552 762.163c-13.517 10.035-32.768 7.373-43.008-6.349l-356.352-479.437-187.187 186.778c-12.083 12.083-31.539 11.878-43.418 0-12.083-12.083-11.878-31.539 0-43.418l212.378-211.763c5.734-5.734 13.517-9.011 21.709-9.011 0.819 0 1.434 0 2.253 0 8.806 0.614 16.998 5.12 22.323 12.288l377.651 507.904c10.035 13.517 7.373 32.768-6.349 43.008zM986.931 762.163c-13.517 10.035-32.768 7.373-43.008-6.349l-356.352-479.437-66.15 65.741c-12.083 11.878-31.539 11.878-43.418-0.205s-11.878-31.539 0.205-43.418l91.136-90.726c5.734-5.734 13.517-9.011 21.709-9.011 0.819 0 1.434 0 2.253 0 8.806 0.614 16.998 5.12 22.323 12.288l377.651 507.904c10.035 13.722 7.373 32.973-6.349 43.213z" />
<glyph unicode="&#xe94c;" glyph-name="home" d="M986.522 598.601l-456.499 325.018c-11.264 6.554-25.395 6.554-36.864 0l-1.229-0.819-454.451-324.198c-13.517-8.806-19.866-25.395-15.565-41.37 4.301-16.384 19.046-27.648 35.84-27.648h69.018v-543.334c0-22.118 19.251-40.141 43.008-40.141h684.646c23.757 0 43.008 18.022 43.008 40.141v543.334h69.018c16.794 0 31.334 11.469 35.84 27.648 4.096 15.974-2.253 32.563-15.77 41.37zM420.454 7.753v335.258h183.091v-335.258h-183.091zM835.994 7.753h-170.803v359.629c0 20.89-15.36 37.069-35.021 37.069h-236.134c-19.661 0-35.021-16.384-35.021-37.069v-359.629h-171.008v521.421h647.782v-521.421zM511.59 861.359l379.699-270.131h-758.579l378.88 270.131z" />
<glyph unicode="&#xe94d;" glyph-name="contacts" d="M155.238 702.23h43.418c16.998 0 30.72 13.722 30.72 30.72s-13.722 30.72-30.72 30.72h-43.418c-16.998 0-30.72-13.722-30.72-30.72s13.926-30.72 30.72-30.72zM155.238 550.883h43.418c16.998 0 30.72 13.722 30.72 30.72s-13.722 30.72-30.72 30.72h-43.418c-16.998 0-30.72-13.722-30.72-30.72s13.926-30.72 30.72-30.72zM151.757 399.74h46.899c16.998 0 30.72 13.722 30.72 30.72s-13.722 30.72-30.72 30.72h-46.899c-16.998 0-30.72-13.722-30.72-30.72s13.926-30.72 30.72-30.72zM198.656 309.628h-43.418c-16.998 0-30.72-13.722-30.72-30.72s13.722-30.72 30.72-30.72h43.418c16.998 0 30.72 13.722 30.72 30.72s-13.722 30.72-30.72 30.72zM198.656 156.028h-43.418c-16.998 0-30.72-13.722-30.72-30.72s13.722-30.72 30.72-30.72h43.418c16.998 0 30.72 13.722 30.72 30.72s-13.722 30.72-30.72 30.72zM956.826 929.353h-889.651c-25.805 0-46.694-19.866-46.694-44.237v-894.771c0-24.371 20.89-44.032 46.694-44.032h889.446c25.805 0 46.694 19.866 46.694 44.032v894.771c0.205 24.371-20.685 44.237-46.49 44.237zM942.080 7.753h-860.16v860.16h860.16v-860.16zM411.034 229.551h335.667c18.637 0 33.178 16.794 29.901 35.226-12.083 68.608-59.187 125.133-122.061 150.733-12.902 5.325-15.155 22.528-4.301 31.334 26.419 21.299 43.008 54.272 41.574 91.341-2.458 57.344-49.152 103.834-106.496 106.086-63.283 2.458-115.098-48.128-115.098-110.797 0-34.406 15.77-65.126 40.346-85.606 10.854-8.806 8.397-26.010-4.71-31.13-64.307-24.986-112.435-82.125-124.723-151.757-3.277-18.432 11.059-35.43 29.901-35.43z" />
<glyph unicode="&#xe94e;" glyph-name="learn" d="M953.6 428.8l-128 256c0 12.8-12.8 19.2-25.6 19.2h-576c-12.8 0-25.6-6.4-25.6-19.2l-128-256c-6.4-6.4-6.4-19.2 0-32s12.8-12.8 25.6-12.8h32v-192c0-19.2 12.8-32 32-32s32 12.8 32 32v192h89.6l-25.6-153.6c0-12.8 6.4-25.6 12.8-32s108.8-70.4 243.2-70.4 236.8 64 243.2 70.4c12.8 6.4 19.2 19.2 12.8 32l-38.4 153.6h198.4c12.8 0 19.2 6.4 25.6 12.8 6.4 12.8 6.4 25.6 0 32zM697.6 236.8c-32-12.8-102.4-44.8-185.6-44.8s-160 32-185.6 51.2l19.2 140.8h320l32-147.2zM147.2 448l32 64h268.8c19.2 0 32 12.8 32 32s-12.8 32-32 32h-236.8l32 64h537.6l96-192h-729.6z" />
<glyph unicode="&#xe94f;" glyph-name="video" d="M608 160h-384c-51.2 0-96 44.8-96 96v384c0 51.2 44.8 96 96 96h384c51.2 0 96-44.8 96-96v-12.8l115.2 83.2c12.8 12.8 38.4 12.8 51.2 0 19.2 0 25.6-12.8 25.6-32v-467.2c0-12.8-6.4-25.6-19.2-32-19.2-6.4-38.4-6.4-51.2 0l-121.6 89.6v-12.8c0-51.2-44.8-96-96-96zM224 672c-19.2 0-32-12.8-32-32v-384c0-19.2 12.8-32 32-32h384c19.2 0 32 12.8 32 32v83.2l19.2 12.8c19.2 12.8 38.4 0 51.2-6.4l121.6-89.6v384l-121.6-89.6c-12.8-12.8-32-19.2-51.2-6.4l-19.2 12.8v83.2c0 19.2-12.8 32-32 32h-384z" />
<glyph unicode="&#xe950;" glyph-name="ellipsis-h-bold-o" d="M512 301.568c-80.691 0-146.432 65.741-146.432 146.432s65.741 146.432 146.432 146.432c80.691 0 146.432-65.741 146.432-146.432s-65.741-146.432-146.432-146.432zM512 532.992c-46.899 0-84.992-38.093-84.992-84.992s38.093-84.992 84.992-84.992c46.899 0 84.992 38.093 84.992 84.992s-38.093 84.992-84.992 84.992zM166.912 301.568c-80.691 0-146.432 65.741-146.432 146.432s65.741 146.432 146.432 146.432c80.691 0 146.432-65.741 146.432-146.432s-65.741-146.432-146.432-146.432zM166.912 532.992c-46.899 0-84.992-38.093-84.992-84.992s38.093-84.992 84.992-84.992c46.899 0 84.992 38.093 84.992 84.992s-38.093 84.992-84.992 84.992zM857.088 301.568c-80.691 0-146.432 65.741-146.432 146.432s65.741 146.432 146.432 146.432c80.691 0 146.432-65.741 146.432-146.432s-65.741-146.432-146.432-146.432zM857.088 532.992c-46.899 0-84.992-38.093-84.992-84.992s38.093-84.992 84.992-84.992c46.899 0 84.992 38.093 84.992 84.992s-38.093 84.992-84.992 84.992z" />
<glyph unicode="&#xe951;" glyph-name="wallet" d="M875.725 371.61c-13.312 0-24.166-10.854-24.166-24.166s10.854-24.166 24.166-24.166 24.166 10.854 24.166 24.166c0 13.312-10.65 24.166-24.166 24.166zM931.84 475.238h-25.395v170.803c0 39.526-32.154 71.68-71.68 71.68h-25.6l-0.205 110.797c0 21.914-9.421 41.37-25.6 53.658-16.589 12.288-38.502 15.974-60.621 10.035l-628.736-115.712c-1.024-0.205-2.048-0.41-3.072-0.819-39.526-11.469-70.451-51.814-70.451-91.546v-36.454c0-0.614 0-1.229 0-1.843v-548.659c0-39.526 32.154-71.68 71.68-71.68h742.605c39.526 0 71.68 32.154 71.68 71.68v122.266h25.395c39.526 0 71.68 32.154 71.68 71.68v112.026c0 39.936-32.154 72.090-71.68 72.090zM735.437 831.795c1.024 0.205 2.048 0.41 3.072 0.819 4.915 1.434 7.578 0.614 8.192 0.205 0.205-0.205 1.024-1.638 1.024-4.506l0.205-110.797h-634.061l621.568 114.278zM834.765 87.142h-742.605c-5.734 0-10.24 4.506-10.24 10.24v548.659c0 0.205 0 0.41 0 0.41 0.205 5.53 4.71 9.83 10.24 9.83h742.605c5.734 0 10.24-4.506 10.24-10.24v-170.803h-267.878c-39.526 0-71.68-32.154-71.68-71.68v-112.026c0-39.526 32.154-71.68 71.68-71.68h267.878v-122.47c0-5.734-4.506-10.24-10.24-10.24zM942.080 291.328c0-5.734-4.506-10.24-10.24-10.24h-354.714c-5.734 0-10.24 4.506-10.24 10.24v112.026c0 5.734 4.506 10.24 10.24 10.24h354.714c5.734 0 10.24-4.506 10.24-10.24v-112.026z" />
<glyph unicode="&#xe952;" glyph-name="add-user" d="M1003.52 405.811c0 141.107-114.893 256-256 256-13.517 0-26.624-1.024-39.526-3.072 0.41 6.144 0.614 12.288 0.614 18.432 0.205 144.589-117.555 262.349-262.349 262.349-144.589 0-262.349-117.76-262.349-262.349 0-49.971 14.131-98.509 40.755-140.493 14.746-23.142 32.768-43.827 53.658-61.030-59.187-29.082-113.664-72.294-157.082-125.338-58.368-71.066-90.317-152.371-90.317-228.762 0-9.216 4.301-18.022 11.469-23.962l0.614-0.41c0 0 0 0 0 0s0 0 0 0c55.501-44.646 117.555-79.258 184.32-103.219 69.018-24.781 141.722-37.274 215.654-37.274 153.805 0 302.285 55.296 418.406 155.853 0 0 0 0 0 0 0.205 0.205 0.41 0.41 0.614 0.41 0.205 0.205 0.41 0.41 0.614 0.614 0.41 0.41 0.819 0.819 1.229 1.229s0.614 0.614 1.024 1.024c0.41 0.41 0.614 0.819 1.024 1.229s0.614 0.819 0.819 1.229c0.205 0.41 0.614 0.819 0.819 1.229s0.614 0.819 0.819 1.229c0.205 0.41 0.41 0.819 0.819 1.229 0.205 0.41 0.41 0.819 0.614 1.229s0.41 1.024 0.614 1.434c0.205 0.41 0.41 0.819 0.41 1.229 0.205 0.614 0.41 1.024 0.41 1.638 0.205 0.41 0.205 0.819 0.41 1.229 0.205 0.614 0.205 1.024 0.41 1.638 0 0.41 0.205 0.819 0.205 1.434s0.205 1.024 0.205 1.638c0 0.614 0 1.024 0 1.638 0 0.41 0 0.614 0 1.024 0 14.746-1.229 29.491-3.686 44.442 80.282 43.213 134.758 128 134.758 225.28zM248.218 51.507c-55.706 20.070-107.93 48.333-155.238 84.378 8.397 124.518 121.651 258.458 259.891 303.718 1.024 0.205 1.843 0.614 2.662 1.024 7.987 3.277 14.336 9.83 17.408 18.022 4.096 11.059 1.434 23.347-6.758 31.949-2.867 2.867-6.144 5.325-9.83 6.758-68.608 34.202-111.206 103.014-111.206 179.814 0 110.797 90.112 200.909 200.909 200.909s200.909-90.112 200.909-200.909c0-12.698-1.229-25.19-3.482-37.478-89.702-39.936-152.166-129.843-152.166-234.086 0-141.107 114.893-256 256-256 21.709 0 42.598 2.662 62.669 7.782 0.205-2.662 0.41-5.12 0.614-7.578-103.014-85.197-233.062-131.891-367.411-131.891-66.97 0-132.506 11.264-194.97 33.587zM747.52 211.251c-107.315 0-194.56 87.245-194.56 194.56s87.245 194.56 194.56 194.56 194.56-87.245 194.56-194.56-87.245-194.56-194.56-194.56zM829.030 436.736h-51.2v51.2c0 16.998-13.722 30.72-30.72 30.72s-30.72-13.722-30.72-30.72v-51.2h-51.2c-16.998 0-30.72-13.722-30.72-30.72s13.722-30.72 30.72-30.72h51.2v-51.2c0-16.998 13.722-30.72 30.72-30.72s30.72 13.722 30.72 30.72v51.2h51.2c16.998 0 30.72 13.722 30.72 30.72s-13.722 30.72-30.72 30.72z" />
<glyph unicode="&#xe953;" glyph-name="delete-multiple" d="M781.722 919.040h-740.762v-740.762h740.762v740.762zM720.282 239.718h-617.882v617.882h617.882v-617.882zM882.278 787.558h-61.44v-648.397h-648.397v-61.44h709.837zM921.6 687.002v-648.602h-648.602v-61.44h710.042v710.042zM251.904 345.805l159.334 159.539 159.539-159.539 43.418 43.418-159.539 159.539 159.539 159.334-43.418 43.622-159.539-159.539-159.334 159.539-43.622-43.622 159.539-159.334-159.539-159.539z" />
<glyph unicode="&#xe954;" glyph-name="delete-single" d="M112.64 847.36v-798.72h798.72v798.72h-798.72zM849.92 110.080h-675.84v675.84h675.84v-675.84zM337.101 229.683l174.899 174.899 174.899-174.899 43.418 43.418-174.899 174.899 174.899 174.899-43.418 43.418-174.899-174.899-174.899 174.899-43.418-43.418 174.899-174.899-174.899-174.899z" />
<glyph unicode="&#xe955;" glyph-name="trash" d="M945.971 784.077h-289.382c-9.626 71.27-70.861 126.566-144.589 126.566s-134.963-55.091-144.589-126.362h-289.382c-16.998 0-30.72-13.722-30.72-30.72s13.722-30.72 30.72-30.72h75.571c0-1.229 0-2.253 0-3.482v-668.877c0-35.84 28.058-64.922 62.464-64.922h592.077c34.406 0 62.464 29.082 62.464 64.922v668.877c0 1.229 0 2.253 0 3.482h75.571c16.998 0 30.72 13.722 30.72 30.72-0.205 16.794-13.926 30.515-30.925 30.515zM512 849.203c35.635 0 66.355-22.323 78.643-53.658h-157.286c12.288 31.334 43.008 53.658 78.643 53.658zM808.96 719.36v-668.877c0-2.048-0.819-3.072-1.229-3.482h-591.462c-0.41 0.41-1.229 1.434-1.229 3.482v668.877c0 2.048 0.819 3.072 1.229 3.482h591.462c0.41-0.41 1.229-1.638 1.229-3.482zM362.906 128.717c16.998 0 30.72 13.722 30.72 30.72v450.56c0 16.998-13.722 30.72-30.72 30.72s-30.72-13.722-30.72-30.72v-450.56c0-16.794 13.722-30.72 30.72-30.72zM512 128.717c16.998 0 30.72 13.722 30.72 30.72v450.56c0 16.998-13.722 30.72-30.72 30.72s-30.72-13.722-30.72-30.72v-450.56c0-16.794 13.722-30.72 30.72-30.72zM661.094 128.717c16.998 0 30.72 13.722 30.72 30.72v450.56c0 16.998-13.722 30.72-30.72 30.72s-30.72-13.722-30.72-30.72v-450.56c0-16.794 13.722-30.72 30.72-30.72z" />
<glyph unicode="&#xe956;" glyph-name="watched-bold" d="M996.925 466.964c-2.191 2.785-54.825 69.12-140.124 136.11-50.401 39.567-101.847 71.168-152.924 93.921-64.901 28.918-129.434 43.581-191.877 43.581-61.87 0-126.095-14.664-190.915-43.581-50.975-22.733-102.4-54.333-153.027-93.88-85.565-66.929-138.752-133.12-140.964-136.008-4.17-5.199-6.693-11.876-6.693-19.142 0-7.208 2.482-13.836 6.639-19.076 2.163-2.742 55.104-69.568 140.055-136.907 50.217-39.854 101.294-71.68 151.818-94.618 64.307-29.184 127.959-43.971 189.194-43.971 119.583 0 242.258 47.985 354.755 138.732 83.968 67.789 132.772 135.168 134.799 137.912 3.629 4.981 5.806 11.223 5.806 17.973 0 7.181-2.464 13.787-6.593 19.018zM823.071 338.903c-70.492-56.607-182.272-124.068-314.9-124.068-119.398 0-229.99 67.584-301.732 124.416-42.142 33.654-79.683 69.202-114.047 107.651 34.492 39.911 72.244 75.208 112.757 107.159 74.26 57.779 185.876 125.076 306.851 125.076 122.163 0 233.636-67.174 305.664-123.515 42.443-33.528 80.171-69.049 114.626-107.559-32.581-40.766-68.604-76.256-107.77-108.021zM510.566 595.067c-78.497 0-142.131-63.634-142.131-142.131s63.634-142.131 142.131-142.131c78.497 0 142.131 63.634 142.131 142.131-0.093 78.459-63.672 142.038-142.122 142.131zM510.566 372.244c-44.565 0-80.691 36.127-80.691 80.691s36.127 80.691 80.691 80.691c44.565 0 80.691-36.127 80.691-80.691-0.035-44.555-36.138-80.665-80.687-80.712z" />
<glyph unicode="&#xe957;" glyph-name="enter" d="M849.51 781.21c0 16.998-13.722 30.72-30.72 30.72 0 0 0 0 0 0-16.998 0-30.72-13.722-30.72-30.72l0.614-515.686-482.714-0.614 83.558 55.706c14.131 9.421 18.022 28.467 8.602 42.598s-28.467 18.022-42.598 8.602l-167.526-111.616c-8.397-5.53-13.517-14.95-13.722-25.19-0.205-8.397 3.072-16.179 8.806-21.914 1.843-1.843 3.891-3.482 6.144-4.915l165.478-117.555c5.325-3.891 11.674-5.734 17.818-5.734 9.626 0 19.046 4.506 24.986 12.902 9.83 13.926 6.554 32.973-7.168 42.803l-88.678 63.078 518.144 0.614c16.998 0 30.72 13.722 30.72 30.72l-1.024 546.202z" />
<glyph unicode="&#xe958;" glyph-name="indent-left" d="M955.597 796.16h-887.194c-16.998 0-30.72 13.722-30.72 30.72s13.722 30.72 30.72 30.72h887.398c16.998 0 30.72-13.722 30.72-30.72s-13.926-30.72-30.925-30.72zM955.597 38.4h-887.194c-16.998 0-30.72 13.722-30.72 30.72s13.722 30.72 30.72 30.72h887.398c16.998 0 30.72-13.722 30.72-30.72s-13.926-30.72-30.925-30.72zM529.203 544.87h-460.8c-16.998 0-30.72 13.722-30.72 30.72s13.722 30.72 30.72 30.72h460.8c16.998 0 30.72-13.722 30.72-30.72s-13.926-30.72-30.72-30.72zM529.203 289.69h-460.8c-16.998 0-30.72 13.722-30.72 30.72s13.722 30.72 30.72 30.72h460.8c16.998 0 30.72-13.722 30.72-30.72s-13.926-30.72-30.72-30.72zM955.597 575.386v-254.566c0-27.238-29.901-44.032-53.248-30.106l-211.149 127.386c-22.528 13.722-22.528 46.49 0 60.006l211.149 127.386c23.552 13.926 53.248-2.867 53.248-30.106z" />
<glyph unicode="&#xe959;" glyph-name="indent-right" d="M955.597 796.16h-887.194c-16.998 0-30.72 13.722-30.72 30.72s13.722 30.72 30.72 30.72h887.398c16.998 0 30.72-13.722 30.72-30.72s-13.926-30.72-30.925-30.72zM955.597 38.4h-887.194c-16.998 0-30.72 13.722-30.72 30.72s13.722 30.72 30.72 30.72h887.398c16.998 0 30.72-13.722 30.72-30.72s-13.926-30.72-30.925-30.72zM955.597 289.69h-460.8c-16.998 0-30.72 13.722-30.72 30.72s13.722 30.72 30.72 30.72h460.8c16.998 0 30.72-13.722 30.72-30.72s-13.722-30.72-30.72-30.72zM955.597 544.87h-460.8c-16.998 0-30.72 13.722-30.72 30.72s13.722 30.72 30.72 30.72h460.8c16.998 0 30.72-13.722 30.72-30.72s-13.722-30.72-30.72-30.72zM68.403 320.614v254.771c0 27.238 29.901 44.032 53.248 30.106l211.149-127.386c22.528-13.722 22.528-46.49 0-60.006l-211.354-127.386c-23.347-14.131-53.043 2.662-53.043 29.901z" />
<glyph unicode="&#xf099;" glyph-name="twitter" horiz-adv-x="951" d="M925.714 717.714q-38.286-56-92.571-95.429 0.571-8 0.571-24 0-74.286-21.714-148.286t-66-142-105.429-120.286-147.429-83.429-184.571-31.143q-154.857 0-283.429 82.857 20-2.286 44.571-2.286 128.571 0 229.143 78.857-60 1.143-107.429 36.857t-65.143 91.143q18.857-2.857 34.857-2.857 24.571 0 48.571 6.286-64 13.143-106 63.714t-42 117.429v2.286q38.857-21.714 83.429-23.429-37.714 25.143-60 65.714t-22.286 88q0 50.286 25.143 93.143 69.143-85.143 168.286-136.286t212.286-56.857q-4.571 21.714-4.571 42.286 0 76.571 54 130.571t130.571 54q80 0 134.857-58.286 62.286 12 117.143 44.571-21.143-65.714-81.143-101.714 53.143 5.714 106.286 28.571z" />
<glyph unicode="&#xf09a;" glyph-name="facebook" horiz-adv-x="602" d="M548 944v-150.857h-89.714q-49.143 0-66.286-20.571t-17.143-61.714v-108h167.429l-22.286-169.143h-145.143v-433.714h-174.857v433.714h-145.714v169.143h145.714v124.571q0 106.286 59.429 164.857t158.286 58.571q84 0 130.286-6.857z" />
<glyph unicode="&#xf0e1;" glyph-name="linkedin" horiz-adv-x="878" d="M199.429 593.714v-566.286h-188.571v566.286h188.571zM211.429 768.571q0.571-41.714-28.857-69.714t-77.429-28h-1.143q-46.857 0-75.429 28t-28.571 69.714q0 42.286 29.429 70t76.857 27.714 76-27.714 29.143-70zM877.714 352v-324.571h-188v302.857q0 60-23.143 94t-72.286 34q-36 0-60.286-19.714t-36.286-48.857q-6.286-17.143-6.286-46.286v-316h-188q1.143 228 1.143 369.714t-0.571 169.143l-0.571 27.429h188v-82.286h-1.143q11.429 18.286 23.429 32t32.286 29.714 49.714 24.857 65.429 8.857q97.714 0 157.143-64.857t59.429-190z" />
<glyph unicode="&#xf16d;" glyph-name="instagram" horiz-adv-x="878" d="M778.286 136v370.286h-77.143q11.429-36 11.429-74.857 0-72-36.571-132.857t-99.429-96.286-137.143-35.429q-112.571 0-192.571 77.429t-80 187.143q0 38.857 11.429 74.857h-80.571v-370.286q0-14.857 10-24.857t24.857-10h610.857q14.286 0 24.571 10t10.286 24.857zM616 440.571q0 70.857-51.714 120.857t-124.857 50q-72.571 0-124.286-50t-51.714-120.857 51.714-120.857 124.286-50q73.143 0 124.857 50t51.714 120.857zM778.286 646.286v94.286q0 16-11.429 27.714t-28 11.714h-99.429q-16.571 0-28-11.714t-11.429-27.714v-94.286q0-16.571 11.429-28t28-11.429h99.429q16.571 0 28 11.429t11.429 28zM877.714 765.143v-652.571q0-46.286-33.143-79.429t-79.429-33.143h-652.571q-46.286 0-79.429 33.143t-33.143 79.429v652.571q0 46.286 33.143 79.429t79.429 33.143h652.571q46.286 0 79.429-33.143t33.143-79.429z" />
<glyph unicode="&#xf188;" glyph-name="bug" horiz-adv-x="951" d="M932.571 402.286q0-14.857-10.857-25.714t-25.714-10.857h-128q0-97.714-38.286-165.714l118.857-119.429q10.857-10.857 10.857-25.714t-10.857-25.714q-10.286-10.857-25.714-10.857t-25.714 10.857l-113.143 112.571q-2.857-2.857-8.571-7.429t-24-16.286-37.143-20.857-46.857-16.571-55.429-7.429v512h-73.143v-512q-29.143 0-58 7.714t-49.714 18.857-37.714 22.286-24.857 18.571l-8.571 8-104.571-118.286q-11.429-12-27.429-12-13.714 0-24.571 9.143-10.857 10.286-11.714 25.429t8.857 26.571l115.429 129.714q-33.143 65.143-33.143 156.571h-128q-14.857 0-25.714 10.857t-10.857 25.714 10.857 25.714 25.714 10.857h128v168l-98.857 98.857q-10.857 10.857-10.857 25.714t10.857 25.714 25.714 10.857 25.714-10.857l98.857-98.857h482.286l98.857 98.857q10.857 10.857 25.714 10.857t25.714-10.857 10.857-25.714-10.857-25.714l-98.857-98.857v-168h128q14.857 0 25.714-10.857t10.857-25.714zM658.286 731.428h-365.714q0 76 53.429 129.429t129.429 53.429 129.429-53.429 53.429-129.429z" />
<glyph unicode="&#xf1a0;" glyph-name="google" horiz-adv-x="860" d="M438.857 501.714h414.286q6.857-38.286 6.857-73.143 0-124-52-221.429t-148.286-152.286-220.857-54.857q-89.714 0-170.857 34.571t-140 93.429-93.429 140-34.571 170.857 34.571 170.857 93.429 140 140 93.429 170.857 34.571q171.429 0 294.286-114.857l-119.429-114.857q-70.286 68-174.857 68-73.714 0-136.286-37.143t-99.143-100.857-36.571-139.143 36.571-139.143 99.143-100.857 136.286-37.143q49.714 0 91.429 13.714t68.571 34.286 46.857 46.857 29.429 49.714 12.857 44.571h-249.143v150.857z" />
<glyph unicode="&#xf204;" glyph-name="toggle-off" horiz-adv-x="1170" d="M658.286 438.857q0 59.429-23.143 113.429t-62.571 93.429-93.429 62.571-113.429 23.143-113.429-23.143-93.429-62.571-62.571-93.429-23.143-113.429 23.143-113.429 62.571-93.429 93.429-62.571 113.429-23.143 113.429 23.143 93.429 62.571 62.571 93.429 23.143 113.429zM1097.143 438.857q0 59.429-23.143 113.429t-62.571 93.429-93.429 62.571-113.429 23.143h-220.571q68-51.429 107.714-128t39.714-164.571-39.714-164.571-107.714-128h220.571q59.429 0 113.429 23.143t93.429 62.571 62.571 93.429 23.143 113.429zM1170.286 438.857q0-74.286-29.143-142t-78-116.571-116.571-78-142-29.143h-438.857q-74.286 0-142 29.143t-116.571 78-78 116.571-29.143 142 29.143 142 78 116.571 116.571 78 142 29.143h438.857q74.286 0 142-29.143t116.571-78 78-116.571 29.143-142z" />
</font>
</defs>
</svg>
